<svg xmlns="http://www.w3.org/2000/svg" xmlns:xlink="http://www.w3.org/1999/xlink" width="200" zoomAndPan="magnify" viewBox="0 0 150 149.999998" height="200" preserveAspectRatio="xMidYMid meet" version="1.0"><path fill="#362701" d="M 100.578125 67.078125 C 97.875 67.078125 95.855469 68.402344 95.855469 71.589844 C 95.855469 73.96875 97.183594 75.660156 100.429688 75.660156 C 103.183594 75.660156 105.050781 74.042969 105.050781 71.492188 C 105.050781 68.597656 103.378906 67.078125 100.578125 67.078125 Z M 95.167969 89.585938 C 94.527344 90.367188 93.890625 91.203125 93.890625 92.160156 C 93.890625 94.121094 96.394531 94.710938 99.839844 94.710938 C 102.691406 94.710938 106.578125 94.515625 106.578125 91.867188 C 106.578125 90.296875 104.707031 90.199219 102.34375 90.050781 L 95.1875 89.5625 Z M 109.722656 67.222656 C 110.605469 68.355469 111.542969 69.921875 111.542969 72.175781 C 111.542969 77.617188 107.25 80.804688 101.070312 80.804688 C 99.480469 80.804688 98.089844 80.609375 97.183594 80.363281 L 95.5625 82.941406 L 100.382812 83.234375 C 108.890625 83.773438 113.902344 84.023438 113.902344 90.539062 C 113.902344 96.179688 108.941406 99.359375 100.382812 99.359375 C 91.484375 99.359375 88.089844 97.105469 88.089844 93.214844 C 88.089844 91.011719 89.078125 89.832031 90.796875 88.210938 C 89.171875 87.53125 88.632812 86.304688 88.632812 84.980469 C 88.632812 83.902344 89.171875 82.917969 90.058594 82.007812 L 93.105469 79.0625 C 90.695312 77.890625 88.875 75.335938 88.875 71.730469 C 88.875 66.089844 92.613281 62.21875 100.136719 62.21875 C 102.253906 62.21875 103.53125 62.414062 104.664062 62.710938 L 114.25 62.710938 L 114.25 66.878906 L 109.726562 67.21875 M 122.898438 58.3125 C 120.117188 58.3125 118.472656 56.695312 118.472656 53.898438 C 118.472656 51.101562 120.097656 49.585938 122.898438 49.585938 C 125.75 49.585938 127.375 51.105469 127.375 53.898438 C 127.375 56.691406 125.75 58.3125 122.902344 58.3125 Z M 116.535156 87.78125 L 116.535156 83.910156 L 119.046875 83.566406 C 119.734375 83.46875 119.835938 83.320312 119.835938 82.582031 L 119.835938 68.171875 C 119.835938 67.632812 119.6875 67.292969 119.195312 67.140625 L 116.535156 66.210938 L 117.078125 62.242188 L 127.257812 62.242188 L 127.257812 82.589844 C 127.257812 83.375 127.304688 83.472656 128.046875 83.574219 L 130.550781 83.917969 L 130.550781 87.785156 L 116.53125 87.785156 M 150.015625 85.882812 C 147.898438 86.910156 144.800781 87.863281 142 87.863281 C 136.144531 87.863281 133.933594 85.511719 133.933594 79.96875 L 133.933594 67.121094 C 133.933594 66.828125 133.933594 66.632812 133.535156 66.632812 L 130.117188 66.632812 L 130.117188 62.269531 C 134.441406 61.792969 136.164062 59.621094 136.707031 54.277344 L 141.378906 54.277344 L 141.378906 61.238281 C 141.378906 61.578125 141.378906 61.730469 141.773438 61.730469 L 148.707031 61.730469 L 148.707031 66.632812 L 141.359375 66.632812 L 141.359375 78.328125 C 141.359375 81.222656 142.050781 82.347656 144.699219 82.347656 C 146.078125 82.347656 147.484375 82.007812 148.683594 81.566406 L 150.011719 85.878906 " fill-opacity="1" fill-rule="nonzero"/><path fill="#f03c2e" d="M 66.601562 71.804688 L 37.121094 42.414062 C 35.425781 40.722656 32.675781 40.722656 30.976562 42.414062 L 24.855469 48.519531 L 32.617188 56.257812 C 34.421875 55.652344 36.492188 56.058594 37.925781 57.492188 C 38.269531 57.832031 38.558594 58.214844 38.792969 58.640625 C 39.027344 59.0625 39.199219 59.507812 39.304688 59.980469 C 39.414062 60.453125 39.457031 60.929688 39.429688 61.410156 C 39.402344 61.894531 39.3125 62.363281 39.152344 62.820312 L 46.636719 70.28125 C 48.425781 69.660156 50.53125 70.0625 51.980469 71.503906 C 52.632812 72.152344 53.082031 72.925781 53.320312 73.816406 C 53.5625 74.703125 53.5625 75.59375 53.320312 76.484375 C 53.082031 77.375 52.636719 78.148438 51.980469 78.796875 C 51.328125 79.449219 50.550781 79.894531 49.660156 80.132812 C 48.765625 80.371094 47.875 80.371094 46.980469 80.132812 C 46.089844 79.894531 45.316406 79.449219 44.664062 78.796875 C 43.144531 77.28125 42.769531 75.054688 43.539062 73.1875 L 36.578125 66.246094 L 36.578125 84.558594 C 37.054688 84.800781 37.535156 85.125 37.945312 85.535156 C 39.96875 87.546875 39.96875 90.8125 37.945312 92.828125 C 37.707031 93.070312 37.445312 93.28125 37.164062 93.472656 C 36.882812 93.660156 36.582031 93.820312 36.269531 93.949219 C 35.957031 94.078125 35.632812 94.175781 35.296875 94.242188 C 34.964844 94.308594 34.628906 94.339844 34.289062 94.339844 C 33.949219 94.339844 33.613281 94.308594 33.28125 94.242188 C 32.945312 94.175781 32.625 94.078125 32.308594 93.949219 C 31.996094 93.820312 31.699219 93.660156 31.414062 93.472656 C 31.132812 93.28125 30.871094 93.070312 30.632812 92.828125 C 28.613281 90.808594 28.613281 87.546875 30.632812 85.535156 C 31.121094 85.046875 31.6875 84.671875 32.324219 84.40625 L 32.324219 65.929688 C 31.730469 65.675781 31.132812 65.304688 30.632812 64.820312 C 30.269531 64.457031 29.964844 64.050781 29.726562 63.601562 C 29.484375 63.148438 29.3125 62.671875 29.214844 62.171875 C 29.113281 61.667969 29.089844 61.164062 29.144531 60.652344 C 29.195312 60.144531 29.320312 59.652344 29.519531 59.183594 L 21.863281 51.546875 L 1.636719 71.667969 C 1.4375 71.867188 1.257812 72.085938 1.097656 72.324219 C 0.941406 72.5625 0.808594 72.8125 0.699219 73.074219 C 0.589844 73.335938 0.507812 73.609375 0.453125 73.886719 C 0.398438 74.167969 0.367188 74.449219 0.367188 74.734375 C 0.367188 75.015625 0.398438 75.300781 0.453125 75.578125 C 0.507812 75.855469 0.589844 76.128906 0.699219 76.390625 C 0.808594 76.652344 0.941406 76.902344 1.097656 77.140625 C 1.257812 77.378906 1.4375 77.597656 1.636719 77.796875 L 31.117188 107.1875 C 32.8125 108.878906 35.566406 108.878906 37.265625 107.1875 L 66.601562 77.9375 C 66.800781 77.734375 66.980469 77.515625 67.140625 77.277344 C 67.296875 77.042969 67.433594 76.792969 67.539062 76.527344 C 67.648438 76.265625 67.730469 75.996094 67.789062 75.714844 C 67.84375 75.4375 67.871094 75.15625 67.871094 74.871094 C 67.871094 74.585938 67.84375 74.304688 67.789062 74.027344 C 67.730469 73.746094 67.648438 73.476562 67.539062 73.210938 C 67.433594 72.949219 67.296875 72.699219 67.140625 72.460938 C 66.980469 72.226562 66.800781 72.007812 66.601562 71.804688 " fill-opacity="1" fill-rule="nonzero"/></svg>