<svg xmlns="http://www.w3.org/2000/svg" xmlns:xlink="http://www.w3.org/1999/xlink" width="200" zoomAndPan="magnify" viewBox="0 0 150 149.999998" height="200" preserveAspectRatio="xMidYMid meet" version="1.0"><defs><clipPath id="0fb3ef2f7b"><path d="M 9.375 0 L 140.625 0 L 140.625 150 L 9.375 150 Z M 9.375 0 " clip-rule="nonzero"/></clipPath></defs><g clip-path="url(#0fb3ef2f7b)"><path fill="#e44d26" d="M 21.417969 134.441406 L 9.492188 0.707031 L 140.507812 0.707031 L 128.570312 134.414062 L 74.917969 149.292969 Z M 21.417969 134.441406 " fill-opacity="1" fill-rule="nonzero"/></g><path fill="#f16529" d="M 75 137.925781 L 118.355469 125.910156 L 128.550781 11.640625 L 75 11.640625 Z M 75 137.925781 " fill-opacity="1" fill-rule="nonzero"/><path fill="#ebebeb" d="M 75 61.242188 L 53.292969 61.242188 L 51.796875 44.445312 L 75 44.445312 L 75 28.046875 L 33.871094 28.046875 L 34.261719 32.441406 L 38.292969 77.644531 L 75 77.644531 Z M 75 103.835938 L 74.925781 103.855469 L 56.664062 98.921875 L 55.492188 85.839844 L 39.03125 85.839844 L 41.328125 111.59375 L 74.925781 120.917969 L 75 120.898438 Z M 75 103.835938 " fill-opacity="1" fill-rule="nonzero"/><path fill="#ffffff" d="M 74.945312 61.242188 L 74.945312 77.644531 L 95.140625 77.644531 L 93.234375 98.914062 L 74.9375 103.851562 L 74.9375 120.914062 L 108.5625 111.59375 L 108.808594 108.820312 L 112.667969 65.640625 L 113.070312 61.238281 L 108.648438 61.238281 Z M 74.945312 28.046875 L 74.945312 44.445312 L 114.5625 44.445312 L 114.890625 40.757812 L 115.636719 32.441406 L 116.027344 28.039062 Z M 74.945312 28.046875 " fill-opacity="1" fill-rule="nonzero"/></svg>