<svg xmlns="http://www.w3.org/2000/svg" xmlns:xlink="http://www.w3.org/1999/xlink" width="200" zoomAndPan="magnify" viewBox="0 0 150 149.999998" height="200" preserveAspectRatio="xMidYMid meet" version="1.0"><rect x="-15" width="180" fill="#ffd600" y="-15" height="179.999997" fill-opacity="1"/><path fill="#000001" d="M 98.074219 112.277344 C 100.957031 116.960938 104.089844 121.449219 110.730469 121.449219 C 116.304688 121.449219 119.230469 118.679688 119.230469 114.847656 C 119.230469 110.257812 116.203125 108.628906 110.070312 105.957031 L 106.707031 104.523438 C 97.003906 100.410156 90.550781 95.25 90.550781 84.355469 C 90.550781 74.3125 98.238281 66.671875 110.25 66.671875 C 118.804688 66.671875 124.949219 69.632812 129.382812 77.390625 L 118.910156 84.085938 C 116.605469 79.972656 114.113281 78.351562 110.25 78.351562 C 106.308594 78.351562 103.8125 80.835938 103.8125 84.085938 C 103.8125 88.105469 106.3125 89.730469 112.082031 92.214844 L 115.445312 93.648438 C 126.882812 98.519531 133.332031 103.496094 133.332031 114.679688 C 133.332031 126.730469 123.816406 133.332031 111.042969 133.332031 C 98.546875 133.332031 91.449219 127.0625 87.5 119.300781 Z M 49.800781 112.621094 C 51.910156 116.394531 55.113281 119.300781 59.722656 119.300781 C 64.128906 119.300781 66.667969 117.558594 66.667969 110.789062 L 66.667969 66.667969 L 80.554688 66.667969 L 80.554688 112.921875 C 80.554688 126.949219 72.417969 133.332031 60.535156 133.332031 C 49.796875 133.332031 42.046875 126.058594 38.886719 119.300781 Z M 49.800781 112.621094 " fill-opacity="1" fill-rule="nonzero"/></svg>