<svg xmlns="http://www.w3.org/2000/svg" xmlns:xlink="http://www.w3.org/1999/xlink" width="200" zoomAndPan="magnify" viewBox="0 0 150 149.999998" height="200" preserveAspectRatio="xMidYMid meet" version="1.0"><path fill="#00d8ff" d="M 123.277344 51.476562 C 121.679688 50.929688 120.070312 50.421875 118.449219 49.957031 C 118.722656 48.84375 118.972656 47.746094 119.195312 46.667969 C 122.847656 28.957031 120.460938 14.6875 112.304688 9.992188 C 104.480469 5.488281 91.6875 10.183594 78.769531 21.410156 C 77.496094 22.519531 76.253906 23.660156 75.035156 24.832031 C 74.222656 24.054688 73.394531 23.289062 72.550781 22.542969 C 59.011719 10.535156 45.441406 5.476562 37.292969 10.1875 C 29.476562 14.703125 27.164062 28.117188 30.453125 44.902344 C 30.78125 46.566406 31.148438 48.21875 31.5625 49.863281 C 29.640625 50.410156 27.785156 50.988281 26.011719 51.605469 C 10.136719 57.132812 0 65.796875 0 74.78125 C 0 84.058594 10.882812 93.367188 27.417969 99.011719 C 28.757812 99.464844 30.109375 99.886719 31.46875 100.277344 C 31.027344 102.046875 30.636719 103.828125 30.292969 105.621094 C 27.15625 122.117188 29.605469 135.210938 37.398438 139.703125 C 45.449219 144.335938 58.960938 139.574219 72.113281 128.089844 C 73.183594 127.15625 74.226562 126.195312 75.242188 125.207031 C 76.558594 126.476562 77.910156 127.707031 79.296875 128.902344 C 92.039062 139.851562 104.625 144.273438 112.410156 139.773438 C 120.453125 135.125 123.066406 121.054688 119.671875 103.9375 C 119.40625 102.597656 119.105469 101.261719 118.773438 99.933594 C 119.722656 99.65625 120.65625 99.367188 121.5625 99.066406 C 138.75 93.378906 149.933594 84.183594 149.933594 74.78125 C 149.933594 65.761719 139.46875 57.042969 123.277344 51.476562 Z M 119.546875 92.992188 C 118.730469 93.265625 117.886719 93.527344 117.03125 93.78125 C 115.132812 87.78125 112.570312 81.402344 109.4375 74.8125 C 112.429688 68.378906 114.890625 62.078125 116.734375 56.121094 C 118.269531 56.5625 119.757812 57.03125 121.191406 57.523438 C 135.066406 62.292969 143.53125 69.347656 143.53125 74.78125 C 143.53125 80.566406 134.390625 88.082031 119.546875 92.992188 Z M 113.390625 105.179688 C 114.890625 112.75 115.105469 119.589844 114.109375 124.941406 C 113.21875 129.75 111.421875 132.953125 109.203125 134.238281 C 104.476562 136.96875 94.371094 133.417969 83.472656 124.054688 C 82.1875 122.945312 80.929688 121.800781 79.703125 120.621094 C 83.929688 116.003906 88.152344 110.640625 92.273438 104.683594 C 99.519531 104.042969 106.367188 102.992188 112.578125 101.558594 C 112.878906 102.757812 113.148438 103.964844 113.390625 105.179688 Z M 51.117188 133.765625 C 46.5 135.394531 42.824219 135.441406 40.601562 134.160156 C 35.871094 131.4375 33.90625 120.921875 36.585938 106.816406 C 36.90625 105.148438 37.269531 103.492188 37.679688 101.84375 C 43.824219 103.199219 50.621094 104.175781 57.886719 104.765625 C 62.035156 110.59375 66.378906 115.953125 70.757812 120.644531 C 69.828125 121.542969 68.875 122.421875 67.902344 123.273438 C 62.082031 128.351562 56.253906 131.953125 51.117188 133.765625 Z M 29.488281 92.957031 C 22.179688 90.460938 16.140625 87.21875 12 83.679688 C 8.28125 80.5 6.40625 77.34375 6.40625 74.78125 C 6.40625 69.328125 14.542969 62.375 28.121094 57.648438 C 29.769531 57.074219 31.492188 56.53125 33.28125 56.023438 C 35.15625 62.121094 37.617188 68.492188 40.589844 74.9375 C 37.582031 81.476562 35.085938 87.949219 33.1875 94.117188 C 31.945312 93.761719 30.714844 93.375 29.488281 92.957031 Z M 36.738281 43.675781 C 33.921875 29.292969 35.792969 18.445312 40.5 15.722656 C 45.519531 12.824219 56.609375 16.957031 68.300781 27.324219 C 69.0625 28.003906 69.8125 28.695312 70.550781 29.398438 C 66.191406 34.070312 61.890625 39.386719 57.777344 45.183594 C 50.726562 45.835938 43.976562 46.882812 37.769531 48.289062 C 37.386719 46.757812 37.042969 45.222656 36.738281 43.675781 Z M 101.414062 59.625 C 99.949219 57.09375 98.429688 54.597656 96.855469 52.136719 C 101.636719 52.738281 106.222656 53.542969 110.527344 54.523438 C 109.234375 58.65625 107.625 62.980469 105.726562 67.414062 C 104.339844 64.789062 102.902344 62.191406 101.414062 59.625 Z M 75.039062 33.96875 C 77.992188 37.164062 80.953125 40.734375 83.863281 44.605469 C 77.960938 44.328125 72.046875 44.328125 66.140625 44.601562 C 69.054688 40.765625 72.039062 37.203125 75.039062 33.96875 Z M 48.496094 59.667969 C 47.023438 62.214844 45.613281 64.796875 44.261719 67.410156 C 42.398438 62.992188 40.800781 58.648438 39.5 54.453125 C 43.777344 53.5 48.339844 52.714844 53.09375 52.125 C 51.5 54.601562 49.96875 57.117188 48.496094 59.667969 Z M 53.230469 97.890625 C 48.316406 97.34375 43.6875 96.601562 39.410156 95.671875 C 40.734375 91.402344 42.367188 86.96875 44.269531 82.453125 C 45.625 85.070312 47.042969 87.652344 48.519531 90.203125 C 50.039062 92.824219 51.613281 95.390625 53.230469 97.890625 Z M 75.214844 116.042969 C 72.179688 112.769531 69.152344 109.152344 66.195312 105.257812 C 69.066406 105.371094 71.992188 105.429688 74.96875 105.429688 C 78.023438 105.429688 81.042969 105.359375 84.019531 105.230469 C 81.097656 109.191406 78.152344 112.816406 75.214844 116.042969 Z M 105.789062 82.222656 C 107.792969 86.785156 109.480469 91.199219 110.824219 95.394531 C 106.476562 96.386719 101.78125 97.183594 96.835938 97.777344 C 98.421875 95.269531 99.957031 92.726562 101.4375 90.160156 C 102.949219 87.546875 104.398438 84.902344 105.789062 82.222656 Z M 95.890625 86.960938 C 93.621094 90.902344 91.222656 94.769531 88.699219 98.550781 C 84.128906 98.875 79.546875 99.035156 74.96875 99.035156 C 70.300781 99.035156 65.761719 98.886719 61.390625 98.605469 C 58.804688 94.828125 56.359375 90.957031 54.0625 86.996094 L 54.066406 86.996094 C 51.78125 83.058594 49.644531 79.035156 47.667969 74.933594 C 49.640625 70.832031 51.769531 66.804688 54.046875 62.863281 L 54.042969 62.863281 C 56.320312 58.917969 58.746094 55.0625 61.316406 51.304688 C 65.773438 50.96875 70.347656 50.792969 74.964844 50.792969 L 74.96875 50.792969 C 79.609375 50.792969 84.1875 50.96875 88.644531 51.308594 C 91.1875 55.0625 93.597656 58.90625 95.871094 62.828125 C 98.152344 66.761719 100.308594 70.769531 102.332031 74.84375 C 100.332031 78.957031 98.183594 83 95.890625 86.960938 Z M 109.105469 15.53125 C 114.125 18.425781 116.078125 30.085938 112.921875 45.378906 C 112.722656 46.351562 112.496094 47.347656 112.25 48.355469 C 106.027344 46.921875 99.273438 45.855469 92.203125 45.191406 C 88.082031 39.332031 83.8125 34.003906 79.527344 29.394531 C 80.648438 28.3125 81.800781 27.261719 82.976562 26.234375 C 94.046875 16.617188 104.390625 12.816406 109.105469 15.53125 Z M 74.96875 61.410156 C 82.363281 61.410156 88.355469 67.394531 88.355469 74.78125 C 88.355469 82.164062 82.363281 88.152344 74.96875 88.152344 C 67.574219 88.152344 61.578125 82.164062 61.578125 74.78125 C 61.578125 67.394531 67.574219 61.410156 74.96875 61.410156 Z M 74.96875 61.410156 " fill-opacity="1" fill-rule="nonzero"/></svg>