<svg xmlns="http://www.w3.org/2000/svg" xmlns:xlink="http://www.w3.org/1999/xlink" width="200" zoomAndPan="magnify" viewBox="0 0 150 149.999998" height="200" preserveAspectRatio="xMidYMid meet" version="1.0"><path fill="#f06292" d="M 128.894531 84.539062 C 123.6875 84.566406 119.175781 85.8125 115.398438 87.679688 C 114.015625 84.921875 112.613281 82.492188 112.382812 80.6875 C 112.105469 78.582031 111.789062 77.320312 112.121094 74.8125 C 112.453125 72.304688 113.90625 68.75 113.886719 68.480469 C 113.863281 68.214844 113.558594 66.9375 110.554688 66.914062 C 107.554688 66.894531 104.984375 67.492188 104.683594 68.285156 C 104.378906 69.078125 103.800781 70.863281 103.441406 72.722656 C 102.917969 75.445312 97.445312 85.160156 94.339844 90.238281 C 93.324219 88.253906 92.460938 86.507812 92.28125 85.125 C 92.007812 83.019531 91.691406 81.761719 92.019531 79.253906 C 92.351562 76.742188 93.804688 73.1875 93.785156 72.921875 C 93.765625 72.652344 93.460938 71.375 90.457031 71.351562 C 87.453125 71.332031 84.882812 71.929688 84.582031 72.722656 C 84.28125 73.515625 83.957031 75.367188 83.34375 77.164062 C 82.726562 78.953125 75.457031 95.15625 73.550781 99.359375 C 72.578125 101.496094 71.734375 103.21875 71.140625 104.390625 C 71.136719 104.386719 71.136719 104.382812 71.136719 104.382812 C 71.136719 104.382812 71.097656 104.460938 71.039062 104.59375 C 70.527344 105.589844 70.226562 106.144531 70.226562 106.144531 C 70.226562 106.144531 70.230469 106.148438 70.234375 106.164062 C 69.828125 106.898438 69.394531 107.578125 69.183594 107.578125 C 69.035156 107.578125 68.734375 105.625 69.246094 102.945312 C 70.332031 97.324219 72.929688 88.558594 72.902344 88.253906 C 72.890625 88.097656 73.386719 86.574219 71.207031 85.773438 C 69.089844 84.996094 68.332031 86.292969 68.140625 86.292969 C 67.953125 86.296875 67.816406 86.753906 67.816406 86.753906 C 67.816406 86.753906 70.175781 76.894531 63.3125 76.894531 C 59.019531 76.894531 53.070312 81.589844 50.144531 85.847656 C 48.292969 86.855469 44.335938 89.015625 40.140625 91.324219 C 38.53125 92.210938 36.882812 93.113281 35.324219 93.972656 C 35.21875 93.855469 35.109375 93.742188 35 93.621094 C 26.675781 84.742188 11.289062 78.460938 11.9375 66.515625 C 12.175781 62.175781 13.6875 50.746094 41.507812 36.882812 C 64.300781 25.527344 82.546875 28.652344 85.699219 35.574219 C 90.203125 45.472656 75.949219 63.863281 52.28125 66.515625 C 43.261719 67.53125 38.511719 64.03125 37.332031 62.730469 C 36.089844 61.359375 35.902344 61.300781 35.4375 61.558594 C 34.683594 61.976562 35.160156 63.183594 35.4375 63.90625 C 36.144531 65.746094 39.042969 69.007812 43.988281 70.632812 C 48.339844 72.058594 58.925781 72.84375 71.730469 67.886719 C 86.070312 62.34375 97.269531 46.910156 93.980469 34.011719 C 90.632812 20.894531 68.882812 16.582031 48.292969 23.894531 C 36.027344 28.25 22.765625 35.082031 13.226562 44 C 1.886719 54.605469 0.078125 63.839844 0.824219 67.695312 C 3.46875 81.402344 22.359375 90.328125 29.925781 96.941406 C 29.554688 97.148438 29.199219 97.339844 28.882812 97.515625 C 25.089844 99.390625 10.691406 106.929688 7.085938 114.890625 C 3 123.921875 7.738281 130.402344 10.871094 131.273438 C 20.585938 133.976562 30.554688 129.113281 35.914062 121.125 C 41.273438 113.136719 40.617188 102.730469 38.160156 97.984375 C 38.128906 97.925781 38.097656 97.867188 38.066406 97.808594 C 39.042969 97.226562 40.042969 96.640625 41.03125 96.058594 C 42.960938 94.921875 44.859375 93.867188 46.5 92.972656 C 45.578125 95.492188 44.90625 98.515625 44.554688 102.878906 C 44.144531 108.007812 46.246094 114.632812 48.996094 117.238281 C 50.207031 118.386719 51.664062 118.414062 52.585938 118.414062 C 55.785156 118.414062 57.242188 115.753906 58.851562 112.605469 C 60.824219 108.742188 62.574219 104.246094 62.574219 104.246094 C 62.574219 104.246094 60.378906 116.390625 66.359375 116.390625 C 68.539062 116.390625 70.730469 113.5625 71.707031 112.125 C 71.710938 112.140625 71.710938 112.148438 71.710938 112.148438 C 71.710938 112.148438 71.769531 112.050781 71.882812 111.867188 C 72.109375 111.519531 72.238281 111.300781 72.238281 111.300781 C 72.238281 111.300781 72.242188 111.277344 72.246094 111.234375 C 73.125 109.714844 75.066406 106.25 77.980469 100.53125 C 81.746094 93.140625 85.355469 83.882812 85.355469 83.882812 C 85.355469 83.882812 85.691406 86.144531 86.789062 89.890625 C 87.4375 92.089844 88.8125 94.527344 89.898438 96.863281 C 89.023438 98.074219 88.488281 98.769531 88.488281 98.769531 C 88.488281 98.769531 88.492188 98.78125 88.503906 98.804688 C 87.804688 99.734375 87.023438 100.734375 86.203125 101.707031 C 83.230469 105.246094 79.691406 109.289062 79.21875 110.453125 C 78.660156 111.828125 78.792969 112.835938 79.871094 113.652344 C 80.660156 114.246094 82.0625 114.339844 83.53125 114.242188 C 86.199219 114.0625 88.078125 113.398438 89.003906 112.996094 C 90.449219 112.484375 92.132812 111.683594 93.710938 110.523438 C 96.625 108.378906 98.382812 105.3125 98.214844 101.25 C 98.121094 99.011719 97.410156 96.792969 96.503906 94.703125 C 96.769531 94.324219 97.03125 93.9375 97.300781 93.550781 C 101.894531 86.832031 105.460938 79.453125 105.460938 79.453125 C 105.460938 79.453125 105.796875 81.714844 106.894531 85.457031 C 107.453125 87.351562 108.550781 89.421875 109.539062 91.445312 C 105.21875 94.957031 102.542969 99.035156 101.609375 101.710938 C 99.890625 106.660156 101.238281 108.902344 103.765625 109.414062 C 104.910156 109.644531 106.527344 109.121094 107.742188 108.605469 C 109.257812 108.105469 111.074219 107.269531 112.773438 106.019531 C 115.691406 103.875 118.492188 100.875 118.324219 96.816406 C 118.246094 94.964844 117.746094 93.132812 117.0625 91.371094 C 120.726562 89.84375 125.46875 88.996094 131.507812 89.703125 C 144.46875 91.214844 147.007812 99.304688 146.523438 102.691406 C 146.035156 106.074219 143.320312 107.9375 142.410156 108.5 C 141.5 109.0625 141.222656 109.257812 141.296875 109.675781 C 141.410156 110.28125 141.828125 110.261719 142.605469 110.128906 C 143.671875 109.949219 149.40625 107.375 149.65625 101.125 C 149.960938 93.183594 142.359375 84.464844 128.894531 84.539062 Z M 29.019531 118.207031 C 24.722656 122.890625 18.730469 124.660156 16.15625 123.167969 C 13.382812 121.558594 14.480469 114.667969 19.746094 109.695312 C 22.957031 106.667969 27.101562 103.878906 29.851562 102.160156 C 30.476562 101.785156 31.394531 101.234375 32.511719 100.5625 C 32.699219 100.457031 32.804688 100.402344 32.804688 100.402344 L 32.800781 100.394531 C 33.015625 100.265625 33.238281 100.132812 33.464844 99.996094 C 35.382812 107.066406 33.523438 113.292969 29.019531 118.207031 Z M 60.289062 96.953125 C 58.792969 100.597656 55.664062 109.921875 53.757812 109.421875 C 52.125 108.992188 51.128906 101.90625 53.433594 94.929688 C 54.59375 91.417969 57.070312 87.222656 58.527344 85.59375 C 60.871094 82.972656 63.449219 82.117188 64.078125 83.179688 C 64.871094 84.535156 61.226562 94.667969 60.289062 96.953125 Z M 86.121094 109.277344 C 85.488281 109.609375 84.902344 109.816406 84.636719 109.660156 C 84.4375 109.539062 84.898438 109.101562 84.898438 109.101562 C 84.898438 109.101562 88.128906 105.625 89.402344 104.042969 C 90.140625 103.125 91 102.03125 91.933594 100.8125 C 91.941406 100.933594 91.945312 101.054688 91.945312 101.171875 C 91.9375 105.335938 87.914062 108.148438 86.121094 109.277344 Z M 106.019531 104.742188 C 105.546875 104.40625 105.625 103.320312 107.179688 99.929688 C 107.789062 98.597656 109.183594 96.363281 111.601562 94.222656 C 111.882812 95.101562 112.054688 95.945312 112.050781 96.730469 C 112.019531 101.972656 108.28125 103.929688 106.019531 104.742188 Z M 106.019531 104.742188 " fill-opacity="1" fill-rule="nonzero"/></svg>