<svg xmlns="http://www.w3.org/2000/svg" xmlns:xlink="http://www.w3.org/1999/xlink" width="1080" zoomAndPan="magnify" viewBox="0 0 810 809.999993" height="1080" preserveAspectRatio="xMidYMid meet" version="1.0"><defs><clipPath id="659e161c3e"><path d="M 0 126 L 810 126 L 810 659.25 L 0 659.25 Z M 0 126 " clip-rule="nonzero"/></clipPath></defs><path fill="#ffffff" d="M 756.503906 87.648438 C 751.191406 85.4375 745.714844 83.773438 740.070312 82.65625 C 734.425781 81.535156 728.726562 80.984375 722.972656 81 L 87.027344 81 C 81.570312 81.007812 76.167969 81.546875 70.816406 82.617188 C 65.464844 83.6875 60.269531 85.269531 55.230469 87.359375 L 405 379.894531 Z M 756.503906 87.648438 " fill-opacity="1" fill-rule="nonzero"/><g clip-path="url(#659e161c3e)"><path fill="#ffffff" d="M 799.285156 127.25 L 423.5 439.730469 C 420.898438 441.886719 418.011719 443.535156 414.832031 444.675781 C 411.65625 445.820312 408.378906 446.386719 405 446.378906 C 401.621094 446.386719 398.34375 445.820312 395.167969 444.675781 C 391.988281 443.535156 389.101562 441.886719 386.5 439.730469 L 11.292969 126.09375 C 7.773438 132.472656 5.085938 139.183594 3.226562 146.230469 C 1.371094 153.273438 0.394531 160.4375 0.308594 167.71875 L 0.308594 572.414062 C 0.308594 573.832031 0.34375 575.25 0.410156 576.667969 C 0.480469 578.085938 0.585938 579.5 0.726562 580.914062 C 0.863281 582.324219 1.039062 583.734375 1.246094 585.136719 C 1.453125 586.542969 1.695312 587.9375 1.972656 589.332031 C 2.25 590.722656 2.5625 592.105469 2.90625 593.484375 C 3.25 594.859375 3.628906 596.226562 4.042969 597.585938 C 4.453125 598.945312 4.898438 600.292969 5.375 601.628906 C 5.855469 602.964844 6.363281 604.289062 6.90625 605.597656 C 7.453125 606.910156 8.027344 608.207031 8.632812 609.492188 C 9.238281 610.773438 9.878906 612.039062 10.546875 613.292969 C 11.214844 614.542969 11.914062 615.777344 12.644531 616.996094 C 13.375 618.214844 14.132812 619.410156 14.921875 620.589844 C 15.710938 621.773438 16.527344 622.933594 17.371094 624.070312 C 18.21875 625.210938 19.089844 626.332031 19.992188 627.425781 C 20.890625 628.523438 21.820312 629.597656 22.773438 630.648438 C 23.726562 631.703125 24.703125 632.730469 25.707031 633.734375 C 26.710938 634.738281 27.738281 635.714844 28.789062 636.667969 C 29.839844 637.621094 30.914062 638.546875 32.011719 639.449219 C 33.109375 640.347656 34.226562 641.222656 35.367188 642.066406 C 36.507812 642.914062 37.667969 643.730469 38.847656 644.519531 C 40.027344 645.304688 41.226562 646.066406 42.445312 646.796875 C 43.660156 647.523438 44.894531 648.222656 46.148438 648.894531 C 47.398438 649.5625 48.667969 650.199219 49.949219 650.808594 C 51.230469 651.414062 52.53125 651.988281 53.839844 652.53125 C 55.152344 653.074219 56.476562 653.585938 57.8125 654.0625 C 59.148438 654.542969 60.496094 654.988281 61.851562 655.398438 C 63.210938 655.808594 64.578125 656.1875 65.957031 656.535156 C 67.332031 656.878906 68.714844 657.191406 70.109375 657.464844 C 71.5 657.742188 72.898438 657.984375 74.300781 658.195312 C 75.707031 658.402344 77.113281 658.574219 78.527344 658.714844 C 79.9375 658.855469 81.355469 658.957031 82.773438 659.027344 C 84.1875 659.097656 85.609375 659.132812 87.027344 659.132812 L 722.972656 659.132812 C 724.390625 659.132812 725.8125 659.097656 727.226562 659.027344 C 728.644531 658.957031 730.0625 658.855469 731.472656 658.714844 C 732.886719 658.574219 734.292969 658.402344 735.699219 658.195312 C 737.101562 657.984375 738.5 657.742188 739.890625 657.464844 C 741.28125 657.191406 742.667969 656.878906 744.042969 656.535156 C 745.421875 656.1875 746.789062 655.808594 748.144531 655.398438 C 749.503906 654.988281 750.851562 654.542969 752.1875 654.0625 C 753.523438 653.585938 754.847656 653.074219 756.160156 652.53125 C 757.46875 651.988281 758.765625 651.414062 760.050781 650.808594 C 761.332031 650.199219 762.601562 649.5625 763.851562 648.894531 C 765.105469 648.222656 766.339844 647.523438 767.554688 646.796875 C 768.773438 646.066406 769.972656 645.304688 771.152344 644.519531 C 772.332031 643.730469 773.492188 642.914062 774.632812 642.066406 C 775.773438 641.222656 776.890625 640.347656 777.988281 639.449219 C 779.085938 638.546875 780.160156 637.621094 781.210938 636.667969 C 782.261719 635.714844 783.289062 634.738281 784.292969 633.734375 C 785.296875 632.730469 786.273438 631.703125 787.226562 630.648438 C 788.179688 629.597656 789.109375 628.523438 790.007812 627.425781 C 790.910156 626.332031 791.78125 625.210938 792.628906 624.070312 C 793.472656 622.933594 794.289062 621.773438 795.078125 620.59375 C 795.867188 619.410156 796.625 618.214844 797.355469 616.996094 C 798.085938 615.777344 798.785156 614.542969 799.453125 613.292969 C 800.121094 612.039062 800.761719 610.773438 801.367188 609.492188 C 801.972656 608.207031 802.546875 606.910156 803.089844 605.597656 C 803.636719 604.289062 804.144531 602.964844 804.625 601.628906 C 805.101562 600.292969 805.546875 598.945312 805.957031 597.585938 C 806.371094 596.226562 806.75 594.859375 807.09375 593.484375 C 807.4375 592.105469 807.75 590.722656 808.027344 589.332031 C 808.304688 587.9375 808.546875 586.542969 808.753906 585.136719 C 808.960938 583.734375 809.136719 582.324219 809.273438 580.914062 C 809.414062 579.5 809.519531 578.085938 809.589844 576.667969 C 809.65625 575.25 809.691406 573.832031 809.691406 572.414062 L 809.691406 167.71875 C 809.632812 160.652344 808.722656 153.695312 806.964844 146.847656 C 805.203125 140.003906 802.644531 133.46875 799.285156 127.25 Z M 799.285156 127.25 " fill-opacity="1" fill-rule="nonzero"/></g></svg>