<svg xmlns="http://www.w3.org/2000/svg" xmlns:xlink="http://www.w3.org/1999/xlink" width="200" zoomAndPan="magnify" viewBox="0 0 150 149.999998" height="200" preserveAspectRatio="xMidYMid meet" version="1.0"><defs><clipPath id="61d73fd394"><path d="M 9.65625 95 L 140.15625 95 L 140.15625 150 L 9.65625 150 Z M 9.65625 95 " clip-rule="nonzero"/></clipPath></defs><path fill="#ffffff" d="M 75.238281 0.800781 C 71.273438 0.800781 68.058594 4.015625 68.058594 7.980469 L 68.058594 85.007812 L 51.234375 68.183594 C 44.46875 61.625 34.507812 71.546875 41.082031 78.335938 C 41.078125 78.335938 70.164062 107.421875 70.164062 107.421875 C 72.878906 110.238281 77.597656 110.144531 80.316406 107.421875 C 80.316406 107.421875 109.398438 78.339844 109.398438 78.339844 C 115.949219 71.558594 106.039062 61.617188 99.246094 68.183594 C 99.246094 68.183594 82.421875 85.007812 82.421875 85.007812 L 82.421875 7.980469 C 82.421875 4.015625 79.203125 0.800781 75.238281 0.800781 Z M 75.238281 0.800781 " fill-opacity="1" fill-rule="nonzero"/><g clip-path="url(#61d73fd394)"><path fill="#ffffff" d="M 17.074219 95.164062 C 13.109375 95.164062 9.894531 98.375 9.894531 102.34375 L 9.894531 112.9375 C 9.894531 132.929688 26.164062 149.199219 46.15625 149.199219 L 104.320312 149.199219 C 124.316406 149.199219 140.585938 132.929688 140.585938 112.9375 L 140.585938 102.34375 C 140.585938 98.375 137.367188 95.164062 133.40625 95.164062 C 129.441406 95.164062 126.222656 98.375 126.222656 102.34375 L 126.222656 112.9375 C 126.222656 125.015625 116.398438 134.839844 104.320312 134.839844 L 46.15625 134.839844 C 34.082031 134.839844 24.253906 125.015625 24.253906 112.9375 L 24.253906 102.34375 C 24.253906 98.375 21.039062 95.164062 17.074219 95.164062 Z M 17.074219 95.164062 " fill-opacity="1" fill-rule="nonzero"/></g></svg>