<svg xmlns="http://www.w3.org/2000/svg" xmlns:xlink="http://www.w3.org/1999/xlink" width="200" zoomAndPan="magnify" viewBox="0 0 150 149.999998" height="200" preserveAspectRatio="xMidYMid meet" version="1.0"><path fill="#ffffff" d="M 17.082031 146.386719 L 132.917969 146.386719 C 142.234375 146.386719 150 138.625 150 129.308594 L 150 112.226562 C 150 106.324219 145.03125 101.355469 139.128906 101.355469 C 133.230469 101.355469 128.261719 106.324219 128.261719 112.226562 L 128.261719 124.648438 L 21.738281 124.648438 L 21.738281 112.226562 C 21.738281 106.324219 16.769531 101.355469 10.871094 101.355469 C 4.96875 101.355469 0 106.324219 0 112.226562 L 0 129.308594 C 0 138.625 7.453125 146.386719 17.082031 146.386719 Z M 17.082031 146.386719 " fill-opacity="1" fill-rule="nonzero"/><path fill="#ffffff" d="M 74.84375 0.425781 C 68.945312 0.425781 63.976562 5.394531 63.976562 11.292969 L 63.976562 69.058594 L 50.621094 55.703125 C 46.273438 51.355469 39.441406 51.355469 35.402344 55.703125 C 31.054688 60.050781 31.054688 66.882812 35.402344 70.921875 L 67.390625 102.910156 C 68.324219 103.839844 69.566406 104.773438 70.808594 105.082031 C 72.050781 105.703125 73.292969 106.015625 74.84375 106.015625 C 76.398438 106.015625 77.640625 105.703125 78.882812 105.082031 C 80.125 104.460938 81.367188 103.839844 82.296875 102.910156 L 114.285156 70.921875 C 118.632812 66.574219 118.632812 59.742188 114.285156 55.394531 C 109.9375 51.046875 103.105469 51.046875 99.066406 55.394531 L 85.714844 68.746094 L 85.714844 11.292969 C 85.714844 5.394531 80.746094 0.425781 74.84375 0.425781 Z M 74.84375 0.425781 " fill-opacity="1" fill-rule="nonzero"/></svg>