<svg xmlns="http://www.w3.org/2000/svg" xmlns:xlink="http://www.w3.org/1999/xlink" width="200" zoomAndPan="magnify" viewBox="0 0 150 149.999998" height="200" preserveAspectRatio="xMidYMid meet" version="1.0"><path fill="#ffffff" d="M 81.605469 93.070312 L 81.605469 6.605469 C 81.605469 4.855469 80.929688 3.179688 79.679688 1.929688 C 78.429688 0.714844 76.75 0 75 0 C 73.25 0 71.570312 0.714844 70.320312 1.929688 C 69.070312 3.179688 68.394531 4.855469 68.394531 6.605469 L 68.394531 93.070312 C 68.394531 93.070312 55.785156 80.464844 48.75 73.429688 C 47.5 72.179688 45.820312 71.5 44.070312 71.5 C 42.320312 71.5 40.644531 72.179688 39.394531 73.429688 C 36.820312 76 36.820312 80.179688 39.394531 82.75 L 70.570312 113.929688 C 71.75 115.105469 73.320312 115.75 75 115.75 C 76.679688 115.75 78.25 115.105469 79.429688 113.929688 L 110.605469 82.75 C 113.179688 80.179688 113.179688 76 110.605469 73.429688 C 109.355469 72.179688 107.679688 71.5 105.929688 71.5 C 104.179688 71.5 102.5 72.179688 101.25 73.429688 C 94.179688 80.464844 81.605469 93.070312 81.605469 93.070312 Z M 81.605469 93.070312 " fill-opacity="1" fill-rule="evenodd"/><path fill="#ffffff" d="M 0 137.5 C 0 140.820312 1.320312 144 3.679688 146.320312 C 6.035156 148.679688 9.214844 150 12.5 150 L 137.5 150 C 140.820312 150 144 148.679688 146.320312 146.320312 C 148.679688 143.964844 150 140.785156 150 137.5 L 150 99.679688 C 150 96.035156 147.035156 93.070312 143.394531 93.070312 C 141.644531 93.070312 139.964844 93.785156 138.714844 95 C 137.464844 96.25 136.785156 97.929688 136.785156 99.679688 L 136.785156 130.570312 C 136.785156 134.035156 134 136.820312 130.535156 136.820312 L 19.464844 136.820312 C 16 136.820312 13.214844 134.035156 13.214844 130.570312 L 13.214844 99.679688 C 13.214844 97.929688 12.5 96.25 11.285156 95 C 10.035156 93.75 8.355469 93.070312 6.605469 93.070312 C 2.964844 93.070312 0 96.035156 0 99.679688 Z M 0 137.5 " fill-opacity="1" fill-rule="evenodd"/></svg>