<svg xmlns="http://www.w3.org/2000/svg" xmlns:xlink="http://www.w3.org/1999/xlink" width="200" zoomAndPan="magnify" viewBox="0 0 150 149.999998" height="200" preserveAspectRatio="xMidYMid meet" version="1.0"><path fill="#ffffff" d="M 146.1875 109.320312 C 144.152344 109.320312 142.371094 111.101562 142.371094 113.136719 L 142.371094 135.253906 C 142.371094 139.066406 139.320312 142.371094 135.253906 142.371094 L 14.746094 142.371094 C 10.933594 142.371094 7.628906 139.320312 7.628906 135.253906 L 7.628906 113.136719 C 7.628906 111.101562 5.847656 109.320312 3.8125 109.320312 C 1.78125 109.320312 0 111.101562 0 113.136719 L 0 135.253906 C 0 143.390625 6.609375 150 14.746094 150 L 135.253906 150 C 143.390625 150 150 143.390625 150 135.253906 L 150 113.136719 C 150 111.101562 148.21875 109.320312 146.1875 109.320312 Z M 146.1875 109.320312 " fill-opacity="1" fill-rule="nonzero"/><path fill="#ffffff" d="M 65.59375 110.339844 C 68.136719 112.628906 71.695312 113.644531 75 113.644531 C 78.304688 113.644531 81.863281 112.371094 84.40625 110.339844 L 136.015625 67.882812 C 136.78125 67.117188 137.289062 66.355469 137.289062 65.339844 C 137.289062 64.320312 137.035156 63.304688 136.527344 62.542969 C 135.761719 61.78125 135 61.269531 133.984375 61.269531 C 132.964844 61.269531 131.949219 61.527344 131.1875 62.035156 L 79.578125 104.492188 C 79.320312 104.746094 79.066406 105 78.8125 105 L 78.8125 3.8125 C 78.8125 1.78125 77.035156 0 75 0 C 72.964844 0 71.1875 1.78125 71.1875 3.8125 L 71.1875 105 C 70.933594 104.746094 70.679688 104.746094 70.421875 104.492188 L 19.066406 61.78125 C 18.304688 61.015625 17.289062 60.761719 16.269531 61.015625 C 15.253906 61.015625 14.238281 61.527344 13.730469 62.289062 C 12.964844 63.050781 12.710938 64.066406 12.964844 65.085938 C 13.21875 66.101562 13.472656 67.117188 14.238281 67.628906 Z M 65.59375 110.339844 " fill-opacity="1" fill-rule="nonzero"/></svg>