<svg xmlns="http://www.w3.org/2000/svg" xmlns:xlink="http://www.w3.org/1999/xlink" width="150" zoomAndPan="magnify" viewBox="0 0 112.5 112.499997" height="150" preserveAspectRatio="xMidYMid meet" version="1.0"><defs><clipPath id="0625842ef3"><path d="M 40 20 L 72 20 L 72 92.617188 L 40 92.617188 Z M 40 20 " clip-rule="nonzero"/></clipPath></defs><path fill="#242424" d="M 30.253906 82.257812 C 28.710938 82.257812 27.679688 81.746094 26.648438 80.714844 L 6.054688 60.117188 C 3.996094 58.058594 3.996094 54.96875 6.054688 52.910156 L 26.648438 32.3125 C 28.710938 30.253906 31.800781 30.253906 33.859375 32.3125 C 35.917969 34.375 35.917969 37.464844 33.859375 39.523438 L 16.867188 56.515625 L 33.859375 73.507812 C 35.917969 75.566406 35.917969 78.65625 33.859375 80.714844 C 32.828125 81.746094 31.800781 82.257812 30.253906 82.257812 Z M 30.253906 82.257812 " fill-opacity="1" fill-rule="nonzero"/><path fill="#242424" d="M 81.746094 82.257812 C 80.199219 82.257812 79.171875 81.746094 78.140625 80.714844 C 76.082031 78.65625 76.082031 75.566406 78.140625 73.507812 L 95.132812 56.515625 L 78.140625 39.523438 C 76.082031 37.464844 76.082031 34.375 78.140625 32.3125 C 80.199219 30.253906 83.289062 30.253906 85.347656 32.3125 L 105.945312 52.910156 C 108.003906 54.96875 108.003906 58.058594 105.945312 60.117188 L 85.347656 80.714844 C 84.320312 81.746094 83.289062 82.257812 81.746094 82.257812 Z M 81.746094 82.257812 " fill-opacity="1" fill-rule="nonzero"/><g clip-path="url(#0625842ef3)"><path fill="#242424" d="M 45.703125 92.558594 C 45.1875 92.558594 44.671875 92.558594 44.15625 92.042969 C 41.582031 91.011719 40.039062 88.4375 41.066406 85.347656 L 61.664062 23.5625 C 62.695312 20.984375 65.269531 19.441406 68.359375 20.472656 C 70.933594 21.5 72.476562 24.074219 71.445312 27.164062 L 50.851562 88.953125 C 49.820312 91.011719 47.761719 92.558594 45.703125 92.558594 Z M 45.703125 92.558594 " fill-opacity="1" fill-rule="nonzero"/></g></svg>