<svg xmlns="http://www.w3.org/2000/svg" xmlns:xlink="http://www.w3.org/1999/xlink" width="150" zoomAndPan="magnify" viewBox="0 0 112.5 112.499997" height="150" preserveAspectRatio="xMidYMid meet" version="1.0"><defs><clipPath id="7bcfeaa2ff"><path d="M 0 15.890625 L 112 15.890625 L 112 95.785156 L 0 95.785156 Z M 0 15.890625 " clip-rule="nonzero"/></clipPath></defs><g clip-path="url(#7bcfeaa2ff)"><path fill="#242424" d="M 108.484375 15.917969 L 10.226562 15.917969 C 4.890625 15.917969 0.546875 20.261719 0.546875 25.597656 L 0.546875 86.402344 C 0.546875 91.742188 4.890625 96.085938 10.226562 96.085938 L 101.773438 96.085938 C 107.109375 96.085938 111.453125 91.742188 111.453125 86.402344 L 111.453125 18.886719 C 111.453125 17.246094 110.125 15.917969 108.484375 15.917969 Z M 10.226562 21.855469 L 105.515625 21.855469 L 105.515625 38.453125 L 6.488281 38.453125 L 6.488281 25.597656 C 6.488281 23.535156 8.164062 21.855469 10.226562 21.855469 Z M 101.777344 90.144531 L 10.226562 90.144531 C 8.164062 90.144531 6.488281 88.46875 6.488281 86.40625 L 6.488281 41.425781 L 105.515625 41.425781 L 105.515625 86.402344 C 105.515625 88.46875 103.835938 90.144531 101.777344 90.144531 Z M 101.777344 90.144531 " fill-opacity="1" fill-rule="nonzero"/></g><path fill="#242424" d="M 37.628906 66.320312 L 24.003906 52.695312 C 23.425781 52.117188 22.484375 52.117188 21.90625 52.695312 C 21.324219 53.273438 21.328125 54.214844 21.90625 54.792969 L 34.53125 67.421875 L 21.90625 80.050781 C 21.328125 80.628906 21.328125 81.570312 21.90625 82.152344 C 22.195312 82.441406 22.574219 82.585938 22.953125 82.585938 C 23.332031 82.585938 23.710938 82.441406 24.003906 82.152344 L 37.628906 68.523438 C 37.929688 68.222656 38.066406 67.820312 38.050781 67.421875 C 38.066406 67.023438 37.933594 66.625 37.628906 66.320312 Z M 37.628906 66.320312 " fill-opacity="1" fill-rule="nonzero"/><path fill="#242424" d="M 73.476562 65.882812 L 49.28125 65.882812 C 48.464844 65.882812 47.796875 66.550781 47.796875 67.371094 C 47.796875 68.191406 48.460938 68.855469 49.28125 68.855469 L 73.476562 68.855469 C 74.296875 68.855469 74.964844 68.191406 74.964844 67.371094 C 74.964844 66.550781 74.296875 65.882812 73.476562 65.882812 Z M 73.476562 65.882812 " fill-opacity="1" fill-rule="nonzero"/><path fill="#242424" d="M 95.777344 34.148438 C 98.214844 34.148438 100.199219 32.167969 100.199219 29.726562 C 100.199219 27.289062 98.214844 25.300781 95.777344 25.300781 C 93.339844 25.300781 91.355469 27.285156 91.355469 29.726562 C 91.355469 32.164062 93.335938 34.148438 95.777344 34.148438 Z M 95.777344 28.273438 C 96.578125 28.273438 97.226562 28.925781 97.226562 29.726562 C 97.226562 30.527344 96.574219 31.179688 95.777344 31.179688 C 94.976562 31.179688 94.324219 30.527344 94.324219 29.726562 C 94.324219 28.925781 94.976562 28.273438 95.777344 28.273438 Z M 95.777344 28.273438 " fill-opacity="1" fill-rule="nonzero"/><path fill="#242424" d="M 86.09375 34.148438 C 88.535156 34.148438 90.519531 32.167969 90.519531 29.726562 C 90.519531 27.289062 88.535156 25.300781 86.09375 25.300781 C 83.65625 25.300781 81.671875 27.285156 81.671875 29.726562 C 81.675781 32.164062 83.65625 34.148438 86.09375 34.148438 Z M 86.09375 28.273438 C 86.898438 28.273438 87.546875 28.925781 87.546875 29.726562 C 87.546875 30.527344 86.894531 31.179688 86.09375 31.179688 C 85.296875 31.179688 84.640625 30.527344 84.640625 29.726562 C 84.640625 28.925781 85.296875 28.273438 86.09375 28.273438 Z M 86.09375 28.273438 " fill-opacity="1" fill-rule="nonzero"/><path fill="#242424" d="M 76.414062 34.148438 C 78.851562 34.148438 80.835938 32.167969 80.835938 29.726562 C 80.835938 27.289062 78.851562 25.300781 76.414062 25.300781 C 73.976562 25.300781 71.992188 27.285156 71.992188 29.726562 C 71.992188 32.164062 73.976562 34.148438 76.414062 34.148438 Z M 76.414062 28.273438 C 77.214844 28.273438 77.867188 28.925781 77.867188 29.726562 C 77.867188 30.527344 77.214844 31.179688 76.414062 31.179688 C 75.613281 31.179688 74.964844 30.527344 74.964844 29.726562 C 74.964844 28.925781 75.613281 28.273438 76.414062 28.273438 Z M 76.414062 28.273438 " fill-opacity="1" fill-rule="nonzero"/></svg>