<svg xmlns="http://www.w3.org/2000/svg" xmlns:xlink="http://www.w3.org/1999/xlink" width="150" zoomAndPan="magnify" viewBox="0 0 112.5 112.499997" height="150" preserveAspectRatio="xMidYMid meet" version="1.0"><defs><clipPath id="795f263a7f"><path d="M 0 16.03125 L 112 16.03125 L 112 95.925781 L 0 95.925781 Z M 0 16.03125 " clip-rule="nonzero"/></clipPath></defs><g clip-path="url(#795f263a7f)"><path fill="#242424" d="M 105.519531 16.03125 C 104.808594 16.03125 104.097656 16.03125 103.390625 16.03125 L 7.101562 16.03125 C 3.996094 16.03125 1.0625 17.808594 0.351562 21.003906 C 0.175781 22.335938 0.0859375 23.667969 0.175781 25 L 0.175781 87.089844 C 0.0859375 88.597656 0.175781 90.109375 0.53125 91.53125 C 1.507812 94.460938 4.261719 95.972656 7.191406 95.972656 L 105.519531 95.972656 C 105.699219 95.972656 105.875 95.882812 106.054688 95.792969 C 109.605469 95.4375 111.914062 92.507812 111.914062 88.867188 L 111.914062 22.957031 C 111.914062 19.226562 109.339844 16.117188 105.519531 16.03125 Z M 2.394531 22.425781 C 2.484375 19.671875 4.617188 18.160156 7.191406 18.160156 L 96.28125 18.160156 C 99.304688 18.160156 102.410156 18.074219 105.433594 18.160156 C 108.097656 18.25 109.785156 20.292969 109.785156 22.871094 L 109.785156 30.597656 L 14.742188 30.597656 C 10.566406 30.597656 6.480469 30.417969 2.394531 30.597656 C 2.308594 27.933594 2.308594 25.179688 2.394531 22.425781 Z M 109.695312 89.398438 C 109.695312 91.707031 107.828125 93.574219 105.429688 93.664062 C 105.34375 93.664062 105.253906 93.664062 105.253906 93.664062 L 7.636719 93.664062 C 5.769531 93.664062 3.90625 93.394531 2.929688 91.53125 C 2.21875 90.199219 2.394531 88.6875 2.394531 87.179688 L 2.394531 33.796875 C 2.394531 33.527344 2.394531 33.171875 2.394531 32.90625 L 97.347656 32.90625 C 101.523438 32.90625 105.609375 33.085938 109.695312 32.90625 L 109.695312 88.511719 C 109.695312 88.777344 109.695312 89.132812 109.695312 89.398438 Z M 109.695312 89.398438 " fill-opacity="1" fill-rule="nonzero"/></g><path fill="#242424" d="M 9.855469 25.445312 C 9.855469 25.355469 9.769531 25.355469 9.855469 25.445312 Z M 9.855469 25.445312 " fill-opacity="1" fill-rule="nonzero"/><path fill="#242424" d="M 14.210938 27.488281 C 14.832031 26.777344 15.097656 25.980469 15.097656 25 C 15.097656 24.824219 15.097656 24.734375 15.097656 24.558594 C 14.921875 23.136719 13.941406 21.980469 12.609375 21.449219 C 11.1875 20.914062 9.5 21.359375 8.523438 22.515625 C 7.191406 24.113281 7.371094 26.421875 8.878906 27.84375 C 10.480469 29.175781 12.789062 29 14.210938 27.488281 Z M 12.878906 24.734375 C 12.878906 24.734375 12.878906 24.824219 12.878906 24.734375 C 12.878906 24.824219 12.878906 24.824219 12.878906 24.824219 C 12.878906 24.824219 12.878906 24.824219 12.878906 24.734375 Z M 9.769531 24.734375 C 9.769531 24.644531 9.769531 24.644531 9.769531 24.558594 C 9.769531 24.46875 9.855469 24.378906 9.855469 24.203125 L 9.945312 24.023438 L 10.035156 23.847656 C 10.125 23.757812 10.210938 23.667969 10.300781 23.582031 L 10.390625 23.582031 C 10.300781 23.667969 10.390625 23.582031 10.480469 23.582031 C 10.566406 23.492188 10.746094 23.492188 10.835938 23.402344 C 10.835938 23.402344 10.566406 23.492188 10.746094 23.402344 L 10.921875 23.3125 L 11.101562 23.3125 C 11.101562 23.3125 11.101562 23.3125 11.1875 23.3125 C 11.1875 23.3125 11.277344 23.3125 11.277344 23.3125 L 11.542969 23.3125 L 11.988281 23.402344 C 12.167969 23.492188 12.167969 23.492188 12.167969 23.492188 L 12.253906 23.582031 L 12.34375 23.667969 C 12.253906 23.582031 12.167969 23.582031 12.253906 23.667969 L 12.523438 23.9375 C 12.523438 24.023438 12.609375 24.023438 12.609375 24.113281 L 12.699219 24.289062 C 12.699219 24.378906 12.699219 24.46875 12.789062 24.46875 C 12.789062 24.558594 12.699219 24.644531 12.699219 24.734375 C 12.699219 24.824219 12.699219 24.824219 12.699219 24.914062 C 12.699219 25 12.609375 25.179688 12.609375 25.269531 C 12.609375 25.269531 12.609375 25.355469 12.609375 25.355469 C 12.609375 25.355469 12.609375 25.355469 12.609375 25.445312 C 12.523438 25.535156 12.433594 25.710938 12.433594 25.800781 C 12.433594 25.800781 12.34375 25.890625 12.34375 25.890625 C 12.34375 25.890625 12.253906 25.980469 12.253906 25.980469 L 12.167969 25.980469 C 12.078125 26.066406 12.078125 26.066406 12.167969 25.980469 C 12.078125 26.066406 11.988281 26.066406 11.988281 26.15625 L 11.898438 26.246094 L 11.457031 26.421875 C 11.367188 26.421875 11.367188 26.421875 11.277344 26.421875 L 10.921875 26.421875 C 10.835938 26.421875 10.746094 26.421875 10.746094 26.332031 L 10.566406 26.246094 C 10.390625 26.15625 10.65625 26.246094 10.65625 26.246094 C 10.65625 26.246094 10.390625 26.066406 10.390625 26.066406 L 10.210938 25.980469 C 10.210938 25.980469 9.945312 25.710938 9.945312 25.710938 L 9.855469 25.625 L 9.855469 25.445312 C 9.855469 25.445312 9.855469 25.535156 9.855469 25.535156 C 9.855469 25.535156 9.769531 25.269531 9.769531 25.179688 Z M 9.769531 24.734375 " fill-opacity="1" fill-rule="nonzero"/><path fill="#242424" d="M 23.09375 27.3125 C 23.625 26.6875 23.890625 25.890625 23.980469 25.089844 C 23.980469 25 23.980469 25 23.980469 24.914062 C 23.980469 24.914062 23.980469 24.824219 23.980469 24.824219 C 23.980469 23.226562 23.003906 21.804688 21.492188 21.269531 C 20.070312 20.738281 18.382812 21.183594 17.40625 22.335938 C 16.074219 23.9375 16.253906 26.246094 17.761719 27.667969 C 19.359375 29.085938 21.671875 28.910156 23.09375 27.3125 Z M 18.738281 24.734375 C 18.738281 24.644531 18.738281 24.644531 18.738281 24.558594 C 18.738281 24.46875 18.828125 24.378906 18.828125 24.203125 L 18.917969 24.023438 L 19.007812 23.847656 C 19.09375 23.757812 19.183594 23.667969 19.273438 23.582031 L 19.359375 23.582031 C 19.359375 23.582031 19.359375 23.582031 19.449219 23.582031 C 19.539062 23.492188 19.714844 23.492188 19.804688 23.402344 C 19.804688 23.402344 19.539062 23.492188 19.714844 23.402344 L 19.894531 23.3125 L 20.070312 23.3125 C 20.070312 23.3125 20.070312 23.3125 20.160156 23.3125 C 20.160156 23.3125 20.25 23.3125 20.25 23.3125 L 20.425781 23.3125 L 20.871094 23.402344 C 21.050781 23.492188 21.050781 23.492188 21.050781 23.492188 C 21.050781 23.492188 21.136719 23.492188 21.136719 23.582031 C 21.136719 23.582031 21.136719 23.582031 21.226562 23.667969 L 21.492188 23.9375 C 21.492188 24.023438 21.582031 24.023438 21.582031 24.113281 L 21.671875 24.289062 C 21.757812 24.46875 21.757812 24.558594 21.757812 24.644531 C 21.757812 24.644531 21.757812 24.644531 21.757812 24.734375 C 21.757812 24.734375 21.757812 24.734375 21.757812 24.824219 C 21.757812 24.914062 21.757812 24.914062 21.757812 25 C 21.757812 25.089844 21.671875 25.269531 21.671875 25.355469 C 21.671875 25.355469 21.671875 25.445312 21.671875 25.445312 C 21.671875 25.445312 21.671875 25.445312 21.671875 25.535156 L 21.492188 25.890625 C 21.492188 25.890625 21.402344 25.980469 21.402344 25.980469 L 21.316406 26.066406 C 21.226562 26.15625 21.226562 26.15625 21.316406 26.066406 C 21.226562 26.15625 21.136719 26.15625 21.136719 26.246094 L 21.050781 26.332031 L 20.515625 26.421875 C 20.425781 26.421875 20.425781 26.421875 20.339844 26.421875 L 19.714844 26.421875 L 19.539062 26.332031 C 19.359375 26.246094 19.628906 26.332031 19.628906 26.332031 C 19.628906 26.332031 19.359375 26.15625 19.359375 26.15625 C 19.359375 26.15625 19.273438 26.066406 19.183594 26.066406 C 19.183594 26.066406 18.917969 25.800781 18.917969 25.800781 L 18.828125 25.710938 L 18.917969 25.625 L 18.917969 25.535156 C 18.917969 25.445312 18.828125 25.445312 18.917969 25.535156 C 18.917969 25.445312 18.828125 25.355469 18.828125 25.269531 C 18.828125 25.269531 18.828125 25.179688 18.828125 25.089844 C 18.738281 25 18.738281 24.824219 18.738281 24.734375 Z M 18.738281 24.734375 " fill-opacity="1" fill-rule="nonzero"/><path fill="#242424" d="M 18.738281 24.734375 C 18.828125 24.46875 18.738281 24.644531 18.738281 24.734375 Z M 18.738281 24.734375 " fill-opacity="1" fill-rule="nonzero"/><path fill="#242424" d="M 32.242188 27.488281 C 32.863281 26.777344 33.128906 25.980469 33.128906 25 C 33.128906 24.824219 33.128906 24.734375 33.128906 24.558594 C 32.863281 23.136719 31.972656 21.980469 30.640625 21.449219 C 29.21875 20.914062 27.53125 21.359375 26.554688 22.515625 C 25.222656 24.113281 25.402344 26.421875 26.910156 27.84375 C 28.421875 29.265625 30.820312 29 32.242188 27.488281 Z M 30.910156 24.734375 C 30.910156 24.734375 30.910156 24.824219 30.910156 24.734375 C 30.910156 24.824219 30.910156 24.824219 30.910156 24.824219 C 30.910156 24.824219 30.910156 24.824219 30.910156 24.734375 Z M 27.800781 24.734375 C 27.800781 24.734375 27.800781 24.644531 27.800781 24.558594 C 27.800781 24.46875 27.886719 24.289062 27.886719 24.203125 L 27.976562 24.023438 L 28.066406 23.847656 C 28.15625 23.757812 28.242188 23.667969 28.332031 23.582031 L 28.421875 23.582031 C 28.332031 23.667969 28.421875 23.582031 28.511719 23.582031 C 28.597656 23.492188 28.777344 23.492188 28.867188 23.402344 C 28.867188 23.402344 28.597656 23.492188 28.777344 23.402344 L 28.953125 23.3125 L 29.132812 23.3125 C 29.132812 23.3125 29.132812 23.3125 29.21875 23.3125 C 29.21875 23.3125 29.308594 23.3125 29.308594 23.3125 L 29.664062 23.3125 L 30.109375 23.402344 C 30.285156 23.492188 30.285156 23.492188 30.285156 23.492188 L 30.375 23.582031 C 30.375 23.582031 30.375 23.582031 30.464844 23.667969 L 30.730469 23.9375 C 30.730469 24.023438 30.820312 24.023438 30.820312 24.113281 C 30.820312 24.203125 30.910156 24.203125 30.910156 24.289062 C 30.910156 24.378906 30.996094 24.46875 30.996094 24.558594 C 30.996094 24.644531 30.910156 24.734375 30.910156 24.824219 C 30.910156 24.914062 30.910156 24.914062 30.910156 25 C 30.910156 25.089844 30.820312 25.269531 30.820312 25.355469 C 30.820312 25.355469 30.820312 25.355469 30.820312 25.445312 C 30.730469 25.535156 30.640625 25.710938 30.640625 25.800781 C 30.640625 25.800781 30.554688 25.890625 30.554688 25.890625 C 30.554688 25.890625 30.464844 25.980469 30.464844 25.980469 C 30.375 26.066406 30.375 26.066406 30.464844 25.980469 C 30.375 26.066406 30.285156 26.066406 30.285156 26.15625 L 30.199219 26.246094 L 29.488281 26.421875 C 29.398438 26.421875 29.398438 26.421875 29.308594 26.421875 L 28.953125 26.421875 L 28.777344 26.332031 L 28.597656 26.246094 C 28.421875 26.246094 28.6875 26.246094 28.6875 26.246094 C 28.6875 26.246094 28.421875 26.066406 28.421875 26.066406 L 28.242188 25.980469 C 28.242188 25.980469 28.066406 25.800781 27.976562 25.710938 L 27.886719 25.535156 L 27.976562 25.445312 C 27.976562 25.355469 27.886719 25.179688 27.886719 25.089844 L 27.886719 24.914062 C 27.800781 24.914062 27.800781 24.824219 27.800781 24.734375 Z M 27.800781 24.734375 " fill-opacity="1" fill-rule="nonzero"/><path fill="#242424" d="M 29.488281 26.421875 C 29.488281 26.332031 29.308594 26.421875 29.488281 26.421875 Z M 29.488281 26.421875 " fill-opacity="1" fill-rule="nonzero"/><path fill="#242424" d="M 27.800781 24.734375 C 27.886719 24.46875 27.800781 24.644531 27.800781 24.734375 Z M 27.800781 24.734375 " fill-opacity="1" fill-rule="nonzero"/><path fill="#242424" d="M 69.101562 51.828125 C 68.214844 50.761719 66.617188 52.359375 67.503906 53.425781 L 76.121094 63.285156 L 67.503906 73.144531 C 66.527344 74.210938 68.125 75.808594 69.101562 74.742188 L 78.429688 64.085938 C 78.875 63.640625 78.875 62.929688 78.429688 62.484375 Z M 69.101562 51.828125 " fill-opacity="1" fill-rule="nonzero"/><path fill="#242424" d="M 42.988281 51.828125 L 33.75 62.484375 C 33.304688 62.929688 33.304688 63.640625 33.75 64.085938 L 42.988281 74.742188 C 43.964844 75.808594 45.476562 74.210938 44.585938 73.144531 L 35.972656 63.285156 L 44.585938 53.425781 C 45.5625 52.359375 43.964844 50.761719 42.988281 51.828125 Z M 42.988281 51.828125 " fill-opacity="1" fill-rule="nonzero"/><path fill="#242424" d="M 60.398438 52.003906 L 51.160156 70.65625 L 49.828125 73.320312 C 49.207031 74.566406 51.070312 75.71875 51.78125 74.476562 L 61.109375 55.824219 L 62.441406 53.160156 C 62.886719 51.914062 61.019531 50.761719 60.398438 52.003906 Z M 60.398438 52.003906 " fill-opacity="1" fill-rule="nonzero"/></svg>