<svg xmlns="http://www.w3.org/2000/svg" xmlns:xlink="http://www.w3.org/1999/xlink" width="150" zoomAndPan="magnify" viewBox="0 0 112.5 112.499997" height="150" preserveAspectRatio="xMidYMid meet" version="1.0"><defs><clipPath id="9e303d97ab"><path d="M 0 15.539062 L 112 15.539062 L 112 96.183594 L 0 96.183594 Z M 0 15.539062 " clip-rule="nonzero"/></clipPath></defs><g clip-path="url(#9e303d97ab)"><path fill="#242424" d="M 108.96875 15.546875 L 9.800781 15.546875 C 4.324219 15.546875 0.03125 19.113281 0.03125 23.667969 L 0.03125 86.6875 C 0.03125 92.074219 4.414062 96.457031 9.800781 96.457031 L 102.199219 96.457031 C 107.585938 96.457031 111.96875 92.074219 111.96875 86.6875 L 111.96875 18.542969 C 111.96875 16.886719 110.628906 15.546875 108.96875 15.546875 Z M 73.953125 25.964844 C 73.953125 24.324219 75.28125 22.996094 76.917969 22.996094 C 78.554688 22.996094 79.882812 24.324219 79.882812 25.964844 C 79.882812 27.601562 78.554688 28.925781 76.917969 28.925781 C 75.28125 28.925781 73.953125 27.601562 73.953125 25.964844 Z M 83.722656 25.964844 C 83.722656 24.324219 85.050781 22.996094 86.6875 22.996094 C 88.324219 22.996094 89.652344 24.324219 89.652344 25.964844 C 89.652344 27.601562 88.324219 28.925781 86.6875 28.925781 C 85.050781 28.925781 83.722656 27.601562 83.722656 25.964844 Z M 93.492188 25.964844 C 93.492188 24.324219 94.820312 22.996094 96.457031 22.996094 C 98.097656 22.996094 99.421875 24.324219 99.421875 25.964844 C 99.421875 27.601562 98.097656 28.925781 96.457031 28.925781 C 94.820312 28.925781 93.492188 27.601562 93.492188 25.964844 Z M 102.199219 90.460938 L 9.800781 90.460938 C 7.71875 90.460938 6.027344 88.769531 6.027344 86.6875 L 6.027344 38.152344 L 105.96875 38.636719 L 105.96875 86.6875 C 105.96875 88.769531 104.273438 90.460938 102.195312 90.460938 Z M 102.199219 90.460938 " fill-opacity="1" fill-rule="nonzero"/></g><path fill="#242424" d="M 46.183594 65.082031 L 32.429688 51.328125 C 31.453125 50.351562 29.875 50.351562 28.898438 51.328125 C 27.921875 52.304688 27.921875 53.886719 28.898438 54.859375 L 40.9375 66.898438 L 28.898438 78.9375 C 27.921875 79.914062 27.921875 81.496094 28.898438 82.46875 C 29.386719 82.957031 30.027344 83.203125 30.664062 83.203125 C 31.304688 83.203125 31.941406 82.957031 32.429688 82.46875 L 46.183594 68.71875 C 46.683594 68.214844 46.925781 67.554688 46.910156 66.898438 C 46.925781 66.242188 46.683594 65.582031 46.183594 65.082031 Z M 46.183594 65.082031 " fill-opacity="1" fill-rule="nonzero"/><path fill="#242424" d="M 81.660156 64.347656 L 57.238281 64.347656 C 55.859375 64.347656 54.742188 65.46875 54.742188 66.847656 C 54.742188 68.226562 55.859375 69.34375 57.238281 69.34375 L 81.660156 69.34375 C 83.039062 69.34375 84.15625 68.226562 84.15625 66.847656 C 84.15625 65.46875 83.039062 64.347656 81.660156 64.347656 Z M 81.660156 64.347656 " fill-opacity="1" fill-rule="nonzero"/></svg>