<svg xmlns="http://www.w3.org/2000/svg" xmlns:xlink="http://www.w3.org/1999/xlink" width="150" zoomAndPan="magnify" viewBox="0 0 112.5 112.499997" height="150" preserveAspectRatio="xMidYMid meet" version="1.0"><defs><clipPath id="5b92e1428f"><path d="M 0 14 L 112.003906 14 L 112.003906 98 L 0 98 Z M 0 14 " clip-rule="nonzero"/></clipPath></defs><g clip-path="url(#5b92e1428f)"><path fill="#ffffff" d="M 105.183594 14.164062 L 6.820312 14.164062 C 6.371094 14.164062 5.925781 14.207031 5.488281 14.292969 C 5.046875 14.382812 4.621094 14.511719 4.207031 14.683594 C 3.792969 14.855469 3.402344 15.066406 3.027344 15.3125 C 2.65625 15.5625 2.3125 15.847656 1.996094 16.164062 C 1.675781 16.480469 1.394531 16.824219 1.144531 17.199219 C 0.898438 17.570312 0.6875 17.964844 0.515625 18.378906 C 0.34375 18.792969 0.214844 19.21875 0.128906 19.660156 C 0.0429688 20.097656 0 20.542969 0 20.992188 L 0 91.101562 C 0 91.550781 0.0429688 91.992188 0.128906 92.433594 C 0.214844 92.875 0.347656 93.300781 0.515625 93.714844 C 0.6875 94.128906 0.898438 94.523438 1.148438 94.898438 C 1.398438 95.269531 1.679688 95.613281 1.996094 95.933594 C 2.316406 96.25 2.660156 96.53125 3.03125 96.78125 C 3.40625 97.03125 3.800781 97.242188 4.214844 97.414062 C 4.628906 97.582031 5.054688 97.714844 5.496094 97.800781 C 5.9375 97.886719 6.378906 97.929688 6.828125 97.929688 L 105.191406 97.929688 C 105.640625 97.929688 106.085938 97.886719 106.523438 97.800781 C 106.964844 97.714844 107.390625 97.582031 107.804688 97.414062 C 108.222656 97.242188 108.613281 97.03125 108.988281 96.78125 C 109.359375 96.53125 109.707031 96.25 110.023438 95.933594 C 110.339844 95.613281 110.625 95.269531 110.871094 94.898438 C 111.121094 94.523438 111.332031 94.128906 111.503906 93.714844 C 111.675781 93.300781 111.804688 92.875 111.890625 92.433594 C 111.976562 91.992188 112.019531 91.550781 112.019531 91.101562 L 112.019531 20.992188 C 112.019531 20.542969 111.976562 20.097656 111.890625 19.65625 C 111.804688 19.21875 111.671875 18.789062 111.503906 18.375 C 111.332031 17.960938 111.121094 17.566406 110.871094 17.191406 C 110.621094 16.820312 110.335938 16.472656 110.019531 16.15625 C 109.703125 15.839844 109.355469 15.558594 108.984375 15.308594 C 108.609375 15.058594 108.214844 14.847656 107.800781 14.675781 C 107.386719 14.507812 106.957031 14.378906 106.515625 14.292969 C 106.078125 14.203125 105.632812 14.160156 105.183594 14.164062 Z M 104.34375 90.261719 L 7.695312 90.261719 L 7.695312 21.832031 L 104.34375 21.832031 Z M 104.34375 90.261719 " fill-opacity="1" fill-rule="nonzero"/></g><path fill="#ffffff" d="M 18.5 72.304688 C 18.820312 72.703125 19.207031 73.019531 19.65625 73.261719 C 20.105469 73.503906 20.585938 73.652344 21.09375 73.703125 C 21.605469 73.753906 22.101562 73.707031 22.59375 73.558594 C 23.082031 73.410156 23.523438 73.171875 23.917969 72.847656 L 40.78125 59.019531 C 40.953125 58.871094 41.113281 58.710938 41.261719 58.539062 L 41.324219 58.476562 C 41.488281 58.28125 41.628906 58.070312 41.746094 57.84375 C 41.800781 57.734375 41.839844 57.625 41.882812 57.519531 C 41.9375 57.398438 41.988281 57.273438 42.027344 57.148438 C 42.066406 57.011719 42.089844 56.875 42.109375 56.734375 C 42.109375 56.632812 42.164062 56.523438 42.171875 56.425781 C 42.179688 56.328125 42.171875 56.183594 42.171875 56.054688 C 42.171875 55.929688 42.171875 55.8125 42.171875 55.683594 C 42.171875 55.558594 42.171875 55.476562 42.109375 55.367188 C 42.089844 55.230469 42.066406 55.097656 42.027344 54.960938 C 41.976562 54.808594 41.917969 54.65625 41.847656 54.511719 C 41.847656 54.429688 41.792969 54.347656 41.746094 54.265625 C 41.625 54.039062 41.484375 53.824219 41.324219 53.625 C 41.253906 53.550781 41.183594 53.484375 41.105469 53.417969 C 41.007812 53.296875 40.902344 53.183594 40.78125 53.082031 L 23.898438 39.265625 C 23.707031 39.101562 23.496094 38.957031 23.273438 38.835938 C 23.050781 38.714844 22.816406 38.617188 22.574219 38.542969 C 22.332031 38.46875 22.085938 38.417969 21.832031 38.390625 C 21.582031 38.363281 21.328125 38.363281 21.074219 38.386719 C 20.820312 38.410156 20.574219 38.460938 20.332031 38.53125 C 20.089844 38.605469 19.855469 38.703125 19.628906 38.820312 C 19.40625 38.941406 19.195312 39.082031 19 39.242188 C 18.804688 39.402344 18.625 39.582031 18.464844 39.777344 C 18.304688 39.976562 18.164062 40.183594 18.046875 40.410156 C 17.925781 40.632812 17.832031 40.867188 17.757812 41.109375 C 17.683594 41.355469 17.636719 41.601562 17.613281 41.855469 C 17.589844 42.109375 17.59375 42.359375 17.621094 42.613281 C 17.644531 42.867188 17.699219 43.113281 17.773438 43.355469 C 17.847656 43.597656 17.949219 43.828125 18.070312 44.050781 C 18.191406 44.273438 18.335938 44.484375 18.496094 44.679688 C 18.660156 44.871094 18.84375 45.050781 19.039062 45.207031 L 32.289062 56.046875 L 19.039062 66.886719 C 18.644531 67.207031 18.324219 67.59375 18.085938 68.046875 C 17.84375 68.496094 17.695312 68.972656 17.644531 69.484375 C 17.59375 69.992188 17.644531 70.488281 17.789062 70.980469 C 17.9375 71.46875 18.175781 71.910156 18.5 72.304688 Z M 18.5 72.304688 " fill-opacity="1" fill-rule="nonzero"/><path fill="#ffffff" d="M 50.625 72.160156 L 69.042969 72.160156 C 69.304688 72.171875 69.5625 72.160156 69.820312 72.121094 C 70.074219 72.078125 70.324219 72.015625 70.570312 71.921875 C 70.8125 71.832031 71.042969 71.71875 71.265625 71.582031 C 71.484375 71.441406 71.691406 71.285156 71.878906 71.105469 C 72.066406 70.925781 72.234375 70.730469 72.382812 70.515625 C 72.53125 70.304688 72.65625 70.078125 72.757812 69.835938 C 72.859375 69.597656 72.9375 69.351562 72.992188 69.097656 C 73.042969 68.84375 73.070312 68.585938 73.070312 68.324219 C 73.070312 68.066406 73.042969 67.808594 72.992188 67.554688 C 72.9375 67.300781 72.859375 67.054688 72.757812 66.8125 C 72.65625 66.574219 72.53125 66.347656 72.382812 66.136719 C 72.234375 65.921875 72.066406 65.726562 71.878906 65.546875 C 71.691406 65.367188 71.484375 65.207031 71.265625 65.070312 C 71.042969 64.933594 70.8125 64.820312 70.570312 64.726562 C 70.324219 64.636719 70.074219 64.574219 69.820312 64.53125 C 69.5625 64.492188 69.304688 64.480469 69.042969 64.492188 L 50.625 64.492188 C 50.132812 64.515625 49.664062 64.628906 49.214844 64.835938 C 48.769531 65.039062 48.375 65.320312 48.035156 65.679688 C 47.695312 66.035156 47.433594 66.441406 47.25 66.898438 C 47.066406 67.359375 46.972656 67.832031 46.972656 68.324219 C 46.972656 68.820312 47.066406 69.292969 47.25 69.75 C 47.433594 70.210938 47.695312 70.617188 48.035156 70.972656 C 48.375 71.332031 48.769531 71.613281 49.214844 71.816406 C 49.664062 72.023438 50.132812 72.136719 50.625 72.160156 Z M 50.625 72.160156 " fill-opacity="1" fill-rule="nonzero"/></svg>