<svg xmlns="http://www.w3.org/2000/svg" xmlns:xlink="http://www.w3.org/1999/xlink" width="200" zoomAndPan="magnify" viewBox="0 0 150 149.999998" height="200" preserveAspectRatio="xMidYMid meet" version="1.0"><path fill="#673ab7" d="M 150 129.167969 C 150 140.675781 140.675781 150 129.167969 150 L 20.832031 150 C 9.328125 150 0 140.675781 0 129.167969 L 0 20.832031 C 0 9.324219 9.328125 0 20.832031 0 L 129.167969 0 C 140.675781 0 150 9.324219 150 20.832031 Z M 150 129.167969 " fill-opacity="1" fill-rule="nonzero"/><path fill="#ffffff" d="M 112.625 81.667969 C 109.917969 77.917969 106 75.332031 100.957031 73.957031 C 100.957031 73.957031 105.207031 72.417969 109.042969 66.667969 C 111.332031 63 112.5 58.582031 112.5 53.417969 C 112.5 44.457031 109.25 37.582031 102.75 32.875 C 96.25 28.167969 88.917969 25 76.457031 25 L 37.5 25 L 37.5 125 L 80.957031 125 C 92.75 124.917969 101.625 122.375 107.667969 117.5 C 113.667969 112.542969 116.667969 105.207031 116.667969 95.417969 C 116.667969 90 115.332031 85.417969 112.625 81.667969 Z M 62.5 41.667969 C 62.5 41.667969 79.875 41.667969 80.207031 41.667969 C 86.542969 41.667969 91.667969 46.792969 91.667969 53.125 C 91.667969 59.457031 86.542969 64.582031 80.207031 64.582031 C 79.875 64.582031 62.5 64.582031 62.5 64.582031 Z M 83.332031 108.332031 L 62.5 108.332031 L 62.5 83.332031 L 83.332031 83.332031 C 90.25 83.332031 95.832031 88.917969 95.832031 95.832031 C 95.832031 102.75 90.25 108.332031 83.332031 108.332031 Z M 83.332031 108.332031 " fill-opacity="1" fill-rule="nonzero"/></svg>