<svg xmlns="http://www.w3.org/2000/svg" xmlns:xlink="http://www.w3.org/1999/xlink" width="200" zoomAndPan="magnify" viewBox="0 0 150 149.999998" height="200" preserveAspectRatio="xMidYMid meet" version="1.0"><defs><clipPath id="0ab84f9053"><path d="M 9.65625 95 L 140.15625 95 L 140.15625 150 L 9.65625 150 Z M 9.65625 95 " clip-rule="nonzero"/></clipPath></defs><path fill="#000000" d="M 75.144531 0.800781 C 71.1875 0.800781 67.976562 4.015625 67.976562 7.980469 L 67.976562 85.007812 L 51.175781 68.183594 C 44.421875 61.625 34.472656 71.546875 41.035156 78.335938 C 41.035156 78.335938 70.074219 107.421875 70.074219 107.421875 C 72.785156 110.238281 77.5 110.144531 80.214844 107.421875 C 80.214844 107.421875 109.253906 78.339844 109.253906 78.339844 C 115.796875 71.558594 105.902344 61.617188 99.117188 68.183594 C 99.117188 68.183594 82.316406 85.007812 82.316406 85.007812 L 82.316406 7.980469 C 82.316406 4.015625 79.105469 0.800781 75.144531 0.800781 Z M 75.144531 0.800781 " fill-opacity="1" fill-rule="nonzero"/><g clip-path="url(#0ab84f9053)"><path fill="#000000" d="M 17.0625 95.164062 C 13.105469 95.164062 9.894531 98.375 9.894531 102.34375 L 9.894531 112.9375 C 9.894531 132.929688 26.140625 149.199219 46.105469 149.199219 L 104.1875 149.199219 C 124.152344 149.199219 140.398438 132.929688 140.398438 112.9375 L 140.398438 102.34375 C 140.398438 98.375 137.183594 95.164062 133.226562 95.164062 C 129.269531 95.164062 126.054688 98.375 126.054688 102.34375 L 126.054688 112.9375 C 126.054688 125.015625 116.242188 134.839844 104.1875 134.839844 L 46.105469 134.839844 C 34.046875 134.839844 24.234375 125.015625 24.234375 112.9375 L 24.234375 102.34375 C 24.234375 98.375 21.023438 95.164062 17.0625 95.164062 Z M 17.0625 95.164062 " fill-opacity="1" fill-rule="nonzero"/></g></svg>