<svg xmlns="http://www.w3.org/2000/svg" xmlns:xlink="http://www.w3.org/1999/xlink" width="200" zoomAndPan="magnify" viewBox="0 0 150 149.999998" height="200" preserveAspectRatio="xMidYMid meet" version="1.0"><path fill="#000000" d="M 65.722656 8.570312 C 33.917969 12.097656 8 37.757812 4.164062 69.515625 C 3.914062 71.507812 3.75 73.511719 3.675781 75.519531 C 3.597656 77.527344 3.609375 79.535156 3.703125 81.542969 C 3.800781 83.550781 3.980469 85.550781 4.246094 87.542969 C 4.515625 89.535156 4.867188 91.511719 5.304688 93.476562 C 5.738281 95.4375 6.257812 97.375 6.863281 99.292969 C 7.464844 101.210938 8.148438 103.101562 8.914062 104.957031 C 9.679688 106.816406 10.523438 108.640625 11.445312 110.425781 C 12.363281 112.214844 13.359375 113.957031 14.429688 115.660156 C 15.503906 117.359375 16.644531 119.011719 17.855469 120.613281 C 19.070312 122.21875 20.347656 123.765625 21.691406 125.261719 C 23.039062 126.753906 24.445312 128.1875 25.914062 129.558594 C 27.378906 130.933594 28.90625 132.242188 30.484375 133.484375 C 32.066406 134.726562 33.695312 135.898438 35.375 137 C 37.058594 138.101562 38.78125 139.132812 40.550781 140.085938 C 42.320312 141.039062 44.125 141.917969 45.972656 142.714844 C 47.816406 143.515625 49.691406 144.234375 51.597656 144.875 C 55.105469 145.433594 56.226562 143.261719 56.226562 141.371094 L 56.226562 129.511719 C 36.800781 133.734375 32.664062 120.121094 32.664062 120.121094 C 29.449219 111.984375 24.878906 109.808594 24.878906 109.808594 C 18.496094 105.457031 25.375 105.601562 25.375 105.601562 C 32.386719 106.097656 36.105469 112.828125 36.105469 112.828125 C 42.207031 123.484375 52.515625 120.328125 56.511719 118.644531 C 57.140625 114.085938 58.992188 111 60.929688 109.246094 C 45.335938 107.496094 29.015625 101.460938 29.015625 74.746094 C 29.015625 66.960938 31.683594 60.722656 36.238281 55.742188 C 35.539062 53.988281 33.082031 46.695312 36.941406 37.226562 C 36.941406 37.226562 42.832031 35.332031 56.226562 44.382812 C 61.96875 42.835938 67.8125 42.0625 73.757812 42.0625 C 79.703125 42.0625 85.546875 42.835938 91.289062 44.382812 C 104.695312 35.332031 110.578125 37.226562 110.578125 37.226562 C 114.429688 46.695312 111.976562 53.988281 111.277344 55.742188 C 115.835938 60.707031 118.5 66.960938 118.5 74.746094 C 118.5 101.53125 102.085938 107.425781 86.453125 109.175781 C 88.976562 111.351562 91.289062 115.632812 91.289062 122.152344 L 91.289062 141.371094 C 91.289062 143.261719 92.410156 145.503906 95.992188 144.875 C 98.027344 144.191406 100.023438 143.417969 101.988281 142.554688 C 103.949219 141.691406 105.871094 140.738281 107.746094 139.695312 C 109.621094 138.65625 111.445312 137.53125 113.21875 136.320312 C 114.992188 135.113281 116.707031 133.828125 118.363281 132.460938 C 120.015625 131.097656 121.605469 129.65625 123.128906 128.148438 C 124.652344 126.636719 126.101562 125.058594 127.480469 123.414062 C 128.859375 121.769531 130.160156 120.066406 131.382812 118.304688 C 132.605469 116.539062 133.742188 114.722656 134.796875 112.855469 C 135.855469 110.988281 136.820312 109.078125 137.703125 107.121094 C 138.582031 105.164062 139.371094 103.171875 140.070312 101.140625 C 140.765625 99.113281 141.371094 97.058594 141.878906 94.972656 C 142.390625 92.890625 142.800781 90.785156 143.117188 88.664062 C 143.433594 86.542969 143.652344 84.410156 143.773438 82.269531 C 143.894531 80.125 143.917969 77.984375 143.839844 75.839844 C 143.765625 73.695312 143.59375 71.558594 143.320312 69.429688 C 143.046875 67.300781 142.679688 65.191406 142.214844 63.097656 C 141.75 61 141.191406 58.933594 140.535156 56.890625 C 139.878906 54.847656 139.132812 52.839844 138.292969 50.863281 C 137.457031 48.890625 136.527344 46.957031 135.511719 45.066406 C 134.496094 43.175781 133.394531 41.339844 132.210938 39.550781 C 131.027344 37.761719 129.761719 36.03125 128.417969 34.359375 C 127.074219 32.683594 125.65625 31.078125 124.167969 29.535156 C 122.675781 27.992188 121.117188 26.519531 119.492188 25.121094 C 117.867188 23.71875 116.179688 22.398438 114.433594 21.152344 C 112.683594 19.90625 110.886719 18.746094 109.03125 17.664062 C 107.179688 16.585938 105.277344 15.589844 103.332031 14.683594 C 101.390625 13.777344 99.40625 12.964844 97.386719 12.238281 C 95.367188 11.515625 93.320312 10.882812 91.242188 10.347656 C 89.164062 9.8125 87.066406 9.371094 84.949219 9.027344 C 82.832031 8.683594 80.703125 8.4375 78.5625 8.285156 C 76.421875 8.136719 74.28125 8.085938 72.136719 8.132812 C 69.992188 8.183594 67.851562 8.328125 65.722656 8.570312 Z M 65.722656 8.570312 " fill-opacity="1" fill-rule="nonzero"/></svg>