<svg xmlns="http://www.w3.org/2000/svg" xmlns:xlink="http://www.w3.org/1999/xlink" width="200" zoomAndPan="magnify" viewBox="0 0 150 149.999998" height="200" preserveAspectRatio="xMidYMid meet" version="1.0"><defs><clipPath id="9ad4c501de"><path d="M 40.03125 0 L 109.78125 0 L 109.78125 150 L 40.03125 150 Z M 40.03125 0 " clip-rule="nonzero"/></clipPath></defs><g clip-path="url(#9ad4c501de)"><path fill="#db4446" d="M 105.277344 0.597656 C 105.074219 0.605469 104.917969 0.664062 104.8125 0.761719 L 86.386719 22.648438 L 82.628906 35.570312 C 80.074219 35.488281 77.4375 35.453125 74.734375 35.453125 C 55.582031 35.453125 40.03125 37.484375 40.03125 40 C 40.03125 46 109.425781 46 109.425781 40 C 109.425781 38.136719 101.117188 36.566406 89.136719 35.824219 L 92.113281 25.1875 L 109.347656 4.453125 L 109.375 4.425781 C 109.761719 4.023438 109.007812 2.816406 107.777344 1.761719 C 106.855469 0.964844 105.882812 0.574219 105.277344 0.597656 Z M 81.214844 40.65625 L 81.144531 40.859375 C 81.117188 40.886719 81.117188 40.917969 81.117188 40.949219 C 81.117188 41.320312 82.617188 41.625 84.449219 41.625 C 86.28125 41.625 87.792969 41.320312 87.792969 40.949219 L 87.851562 40.714844 C 88.332031 40.890625 88.597656 41.085938 88.597656 41.316406 C 88.597656 41.914062 86.738281 42.40625 84.421875 42.382812 C 82.167969 42.382812 80.304688 41.925781 80.304688 41.324219 C 80.304688 41.066406 80.671875 40.832031 81.214844 40.65625 Z M 109.035156 42.363281 C 99.855469 47.257812 49.703125 47.289062 40.488281 42.429688 L 44.566406 78.304688 C 46.335938 72.585938 50.8125 64.863281 56.578125 62.523438 C 58.46875 61.75 60.386719 61.753906 62.1875 62.785156 C 63.75 63.640625 65.070312 65.441406 65.21875 66.15625 C 65.582031 68.015625 64.621094 68.75 63.871094 68.75 C 62.96875 68.75 62.28125 67.441406 61.828125 66.667969 C 60.597656 64.582031 58.734375 64.492188 56.753906 65.863281 C 54.679688 67.292969 52.878906 69.695312 51.617188 71.785156 C 50.085938 74.296875 48.792969 77.070312 48.015625 79.84375 C 47.5625 81.445312 47.148438 84.011719 47.839844 85.53125 C 48.140625 86.160156 48.589844 86.558594 49.3125 86.558594 C 50.816406 86.558594 52.996094 84.671875 54.050781 83.671875 C 55.398438 82.386719 57.140625 80.382812 57.796875 79.097656 L 59.367188 74.671875 C 60.148438 72.726562 62.332031 73.070312 62.332031 74.671875 C 62.332031 77.585938 61.230469 78.558594 59.339844 84.589844 C 57.597656 90.164062 57.050781 91.972656 57.050781 91.972656 C 56.84375 92.769531 56.03125 94.113281 55.164062 94.113281 C 54.800781 94.113281 54.539062 93.992188 54.386719 93.765625 C 54.085938 93.363281 54.117188 92.261719 54.144531 91.972656 C 54.207031 91.058594 56.03125 85.625 56.335938 84.765625 C 55.734375 85.394531 55.105469 86.03125 54.417969 86.65625 C 52.796875 88.113281 50.1875 90.027344 47.964844 90.027344 C 46.945312 90.027344 46.289062 89.765625 45.660156 89.335938 L 47.9375 112.09375 C 48.535156 113.523438 59.707031 116.988281 74.414062 116.988281 C 89.148438 116.988281 100.308594 113.496094 100.878906 112.09375 L 104.152344 85.054688 C 102.441406 86.542969 100.464844 88.375 98.273438 89.289062 C 96.652344 89.949219 93.050781 90.371094 93.050781 87.652344 C 93.050781 86.164062 95.785156 83.425781 97.371094 81.511719 C 97.792969 81.023438 98.777344 79.824219 98.777344 79.195312 C 98.777344 78.367188 96.980469 78.558594 95.269531 79.902344 C 94.308594 80.675781 93.402344 81.710938 92.65625 82.683594 C 91.367188 84.398438 90.675781 85.878906 90.105469 87.109375 C 88.246094 91.167969 88.878906 89.566406 87.375 93.398438 C 85.871094 97.203125 86.117188 96.769531 85.816406 97.398438 C 85.546875 97.945312 85.15625 98.402344 84.613281 98.6875 C 84.042969 98.972656 83.265625 98.941406 82.78125 98.597656 C 82.515625 98.425781 82.386719 98.054688 82.386719 97.542969 C 82.386719 97.285156 82.421875 97.027344 82.484375 96.769531 C 82.933594 95.023438 84.824219 91.597656 86.988281 86.964844 C 87.46875 85.90625 87.285156 86.222656 87.21875 86.304688 C 85.359375 88.023438 83.945312 88.851562 82.898438 89.308594 C 81.160156 90.054688 78.996094 90.050781 78.550781 88.136719 C 78.519531 88.023438 78.519531 87.902344 78.492188 87.789062 C 74.949219 90.417969 71.199219 91.132812 72.496094 85.472656 C 71.117188 87.820312 68.707031 89.734375 65.761719 89.734375 C 64.53125 89.734375 63.632812 89.339844 63.183594 88.28125 C 62.496094 86.710938 63.574219 84.015625 64.558594 81.472656 C 65.070312 80.1875 65.769531 78.640625 66.703125 76.839844 C 67.183594 75.867188 67.957031 75.292969 68.976562 75.550781 C 69.15625 75.613281 69.3125 75.671875 69.460938 75.753906 C 70.242188 76.273438 69.941406 77.035156 69.550781 77.808594 C 68.410156 79.953125 67.417969 81.527344 66.757812 83.757812 C 66.492188 84.699219 66.152344 86.335938 67.207031 86.335938 C 67.925781 86.335938 68.613281 86.101562 69.277344 85.648438 C 70.65625 84.675781 71.769531 83.21875 72.609375 81.792969 C 73.210938 80.765625 73.933594 79.421875 74.296875 78.273438 C 74.445312 77.789062 74.628906 77.332031 74.839844 76.898438 C 75.171875 76.183594 75.613281 75.445312 76.398438 75.445312 C 76.789062 75.445312 77.113281 75.589844 77.359375 75.871094 C 77.867188 76.5 77.757812 77.148438 77.484375 77.839844 C 76.882812 79.441406 76.074219 80.875 75.410156 82.613281 C 75.019531 83.617188 74.597656 84.898438 74.597656 85.957031 C 74.597656 86.929688 75.707031 86.699219 76.640625 86.296875 C 77.359375 85.984375 78.078125 85.503906 78.683594 85.015625 C 79.046875 83.617188 78.953125 83.925781 86.609375 65.515625 C 87 64.574219 87.722656 64.167969 88.441406 64.167969 C 88.804688 64.167969 89.097656 64.289062 89.398438 64.488281 C 89.910156 64.859375 89.917969 65.652344 89.710938 66.253906 C 89.5 66.796875 89.523438 66.625 88.355469 69.253906 C 86.792969 72.710938 85.773438 75.207031 84.390625 78.382812 C 83.820312 79.695312 82.082031 83.785156 81.785156 84.753906 C 81.605469 85.386719 81.390625 86.414062 82.085938 86.414062 C 83.707031 86.414062 87.882812 82.664062 89.023438 81.550781 C 89.082031 81.464844 89.175781 81.433594 89.292969 81.375 C 89.472656 80.828125 89.648438 80.320312 89.796875 79.804688 C 90.21875 78.71875 90.613281 77.453125 91.394531 76.570312 C 91.632812 76.28125 91.902344 76.113281 92.199219 76.113281 C 93.039062 76.113281 93.457031 76.453125 93.457031 77.257812 C 93.457031 77.570312 93.253906 78.71875 93.128906 79.03125 C 93.550781 78.601562 93.996094 78.179688 94.476562 77.75 C 98.980469 73.777344 102.1875 75.804688 102.1875 77.808594 C 102.1875 79.921875 99.519531 82.863281 98.050781 84.492188 C 97.570312 85.039062 96.578125 86.039062 96.550781 86.324219 C 96.550781 86.695312 96.816406 86.847656 97.207031 86.847656 C 97.808594 86.847656 99.128906 85.84375 99.609375 85.5 C 101.113281 84.386719 103.148438 82.671875 104.589844 81.472656 Z M 49.601562 114.835938 L 54.078125 122.101562 L 55.820312 144.800781 C 55.820312 147.34375 64.316406 149.402344 74.761719 149.402344 C 85.207031 149.402344 93.699219 147.34375 93.699219 144.800781 L 95.085938 121.867188 L 99.308594 114.835938 C 87.421875 119.613281 61.972656 119.78125 49.601562 114.835938 Z M 49.601562 114.835938 " fill-opacity="1" fill-rule="nonzero"/></g></svg>