<svg xmlns="http://www.w3.org/2000/svg" xmlns:xlink="http://www.w3.org/1999/xlink" width="200" zoomAndPan="magnify" viewBox="0 0 150 149.999998" height="200" preserveAspectRatio="xMidYMid meet" version="1.0"><path fill="#ffc44d" d="M 4.359375 -0.355469 C 2.835938 -0.355469 1.386719 0.300781 0.378906 1.441406 C -0.628906 2.585938 -1.097656 4.105469 -0.910156 5.617188 L 13.253906 118.917969 C 13.472656 120.679688 14.558594 122.214844 16.148438 123.007812 L 72.800781 151.335938 C 74.292969 152.082031 76.054688 152.082031 77.550781 151.335938 L 134.199219 123.007812 C 135.789062 122.214844 136.875 120.679688 137.09375 118.917969 L 151.257812 5.617188 C 151.445312 4.105469 150.976562 2.585938 149.96875 1.441406 C 148.960938 0.300781 147.511719 -0.355469 145.988281 -0.355469 Z M 4.359375 -0.355469 " fill-opacity="1" fill-rule="nonzero"/><path fill="#e5b045" d="M 75.175781 -0.355469 L 75.175781 151.894531 C 74.359375 151.894531 73.546875 151.707031 72.800781 151.335938 L 16.148438 123.007812 C 14.558594 122.214844 13.472656 120.679688 13.253906 118.917969 L -0.910156 5.617188 C -1.097656 4.105469 -0.628906 2.585938 0.378906 1.441406 C 1.386719 0.300781 2.835938 -0.355469 4.359375 -0.355469 Z M 75.175781 -0.355469 " fill-opacity="1" fill-rule="evenodd"/><path fill="#cfd8dc" d="M 64.554688 20.890625 C 67.484375 20.890625 69.863281 23.269531 69.863281 26.199219 L 69.863281 118.257812 C 69.863281 120.152344 68.855469 121.902344 67.21875 122.851562 C 65.582031 123.804688 63.5625 123.808594 61.917969 122.871094 L 37.132812 108.707031 C 34.585938 107.253906 33.703125 104.007812 35.15625 101.460938 C 36.613281 98.914062 39.855469 98.03125 42.402344 99.484375 L 59.242188 109.105469 L 59.242188 26.199219 C 59.242188 23.269531 61.621094 20.890625 64.554688 20.890625 Z M 64.554688 20.890625 " fill-opacity="1" fill-rule="evenodd"/><path fill="#eceff1" d="M 80.488281 26.199219 C 80.488281 23.269531 82.863281 20.890625 85.796875 20.890625 L 121.203125 20.890625 C 124.136719 20.890625 126.515625 23.269531 126.515625 26.199219 C 126.515625 29.132812 124.136719 31.511719 121.203125 31.511719 L 91.109375 31.511719 L 91.109375 65.609375 L 116.511719 59.964844 C 118.167969 59.597656 119.898438 60.042969 121.171875 61.160156 C 122.445312 62.28125 123.105469 63.941406 122.953125 65.628906 L 119.414062 104.578125 C 119.246094 106.410156 118.144531 108.023438 116.5 108.847656 L 88.171875 123.007812 C 85.550781 124.320312 82.359375 123.257812 81.046875 120.632812 C 79.734375 118.011719 80.800781 114.820312 83.421875 113.507812 L 109.101562 100.667969 L 111.714844 71.910156 L 86.949219 77.414062 C 85.378906 77.765625 83.730469 77.382812 82.472656 76.371094 C 81.21875 75.363281 80.488281 73.839844 80.488281 72.230469 Z M 80.488281 26.199219 " fill-opacity="1" fill-rule="evenodd"/></svg>