<svg xmlns="http://www.w3.org/2000/svg" xmlns:xlink="http://www.w3.org/1999/xlink" width="200" zoomAndPan="magnify" viewBox="0 0 150 149.999998" height="200" preserveAspectRatio="xMidYMid meet" version="1.0"><path fill="#01ec64" d="M 87.84375 16.957031 C 81.578125 9.515625 76.183594 1.957031 75.082031 0.386719 C 75.058594 0.359375 75.023438 0.335938 74.992188 0.324219 C 74.957031 0.308594 74.917969 0.300781 74.878906 0.300781 C 74.84375 0.300781 74.804688 0.308594 74.769531 0.324219 C 74.734375 0.335938 74.703125 0.359375 74.675781 0.386719 C 73.574219 1.957031 68.179688 9.515625 61.917969 16.957031 C 8.15625 85.621094 70.386719 131.957031 70.386719 131.957031 L 70.90625 132.308594 C 71.371094 139.457031 72.53125 149.75 72.53125 149.75 L 77.171875 149.75 C 77.171875 149.75 78.332031 139.515625 78.792969 132.308594 L 79.316406 131.902344 C 79.375 131.960938 141.605469 85.621094 87.84375 16.957031 Z M 74.851562 130.910156 C 74.851562 130.910156 72.066406 128.527344 71.3125 127.308594 L 71.3125 127.191406 L 74.675781 52.421875 C 74.675781 52.191406 75.023438 52.191406 75.023438 52.421875 L 78.386719 127.191406 L 78.386719 127.308594 C 77.632812 128.527344 74.851562 130.910156 74.851562 130.910156 Z M 74.851562 130.910156 " fill-opacity="1" fill-rule="nonzero"/></svg>