<svg xmlns="http://www.w3.org/2000/svg" xmlns:xlink="http://www.w3.org/1999/xlink" width="200" zoomAndPan="magnify" viewBox="0 0 150 149.999998" height="200" preserveAspectRatio="xMidYMid meet" version="1.0"><defs><clipPath id="68218a8bbd"><path d="M 37 67 L 136 67 L 136 104.625 L 37 104.625 Z M 37 67 " clip-rule="nonzero"/></clipPath><clipPath id="17e31b5fe2"><path d="M 78 45.375 L 113 45.375 L 113 104.625 L 78 104.625 Z M 78 45.375 " clip-rule="nonzero"/></clipPath><clipPath id="29921e8569"><path d="M 37 67 L 72 67 L 72 104.625 L 37 104.625 Z M 37 67 " clip-rule="nonzero"/></clipPath><clipPath id="a1ca9f0c28"><path d="M 0 67 L 150 67 L 150 104.625 L 0 104.625 Z M 0 67 " clip-rule="nonzero"/></clipPath></defs><g clip-path="url(#68218a8bbd)"><path fill="#388e3c" d="M 53.917969 67.46875 L 38.695312 75.890625 C 38.125 76.203125 37.773438 76.785156 37.773438 77.417969 L 37.773438 94.269531 C 37.773438 94.898438 38.125 95.480469 38.695312 95.796875 L 53.921875 104.226562 C 54.488281 104.539062 55.191406 104.539062 55.761719 104.226562 L 70.984375 95.796875 C 71.546875 95.480469 71.898438 94.898438 71.898438 94.269531 L 71.898438 77.417969 C 71.898438 76.785156 71.546875 76.207031 70.976562 75.890625 L 55.757812 67.46875 C 55.472656 67.308594 55.152344 67.230469 54.835938 67.230469 C 54.515625 67.230469 54.199219 67.308594 53.914062 67.46875 M 132.238281 82.640625 L 129.699219 84.042969 C 129.601562 84.09375 129.546875 84.191406 129.546875 84.296875 L 129.546875 87.109375 C 129.546875 87.214844 129.605469 87.308594 129.699219 87.363281 L 132.238281 88.765625 C 132.332031 88.820312 132.449219 88.820312 132.542969 88.765625 L 135.082031 87.363281 C 135.175781 87.308594 135.234375 87.214844 135.234375 87.109375 L 135.234375 84.296875 C 135.234375 84.191406 135.175781 84.09375 135.078125 84.042969 L 132.539062 82.640625 C 132.496094 82.613281 132.441406 82.601562 132.390625 82.601562 C 132.335938 82.601562 132.285156 82.613281 132.238281 82.640625 " fill-opacity="1" fill-rule="nonzero"/></g><g clip-path="url(#17e31b5fe2)"><path fill="#37474f" d="M 111.453125 49.605469 L 104.042969 45.472656 C 103.808594 45.339844 103.523438 45.34375 103.292969 45.480469 C 103.066406 45.617188 102.921875 45.863281 102.921875 46.128906 L 102.917969 71.105469 L 96.085938 67.324219 C 95.800781 67.167969 95.480469 67.089844 95.164062 67.089844 C 94.847656 67.089844 94.527344 67.167969 94.242188 67.324219 L 94.246094 67.324219 L 79.023438 75.746094 C 78.453125 76.0625 78.101562 76.644531 78.101562 77.269531 L 78.101562 94.125 C 78.101562 94.753906 78.453125 95.335938 79.023438 95.652344 L 94.25 104.078125 C 94.816406 104.390625 95.519531 104.390625 96.089844 104.078125 L 111.308594 95.652344 C 111.875 95.335938 112.226562 94.753906 112.226562 94.125 L 112.226562 50.921875 C 112.226562 50.375 111.925781 49.871094 111.453125 49.605469 Z M 102.503906 90.226562 L 95.585938 94.054688 C 95.328125 94.199219 95.007812 94.199219 94.75 94.054688 L 87.832031 90.226562 C 87.566406 90.082031 87.410156 89.816406 87.410156 89.53125 L 87.410156 81.867188 C 87.410156 81.582031 87.566406 81.320312 87.828125 81.171875 L 94.746094 77.34375 C 94.875 77.273438 95.019531 77.238281 95.164062 77.238281 C 95.308594 77.238281 95.453125 77.277344 95.582031 77.34375 L 102.5 81.171875 C 102.761719 81.320312 102.917969 81.585938 102.917969 81.871094 L 102.917969 89.535156 C 102.917969 89.816406 102.761719 90.082031 102.503906 90.226562 Z M 102.503906 90.226562 " fill-opacity="1" fill-rule="nonzero"/></g><g clip-path="url(#29921e8569)"><path fill="#2e7d32" d="M 53.917969 67.46875 L 37.773438 94.269531 C 37.773438 94.898438 38.125 95.480469 38.695312 95.796875 L 53.921875 104.226562 C 54.488281 104.539062 55.191406 104.539062 55.761719 104.226562 L 71.898438 77.417969 C 71.898438 76.785156 71.546875 76.207031 70.976562 75.890625 L 55.757812 67.46875 C 55.472656 67.308594 55.152344 67.230469 54.835938 67.230469 C 54.515625 67.230469 54.199219 67.308594 53.914062 67.46875 " fill-opacity="1" fill-rule="nonzero"/><path fill="#4caf50" d="M 53.917969 67.46875 L 38.695312 75.890625 C 38.125 76.203125 37.773438 76.785156 37.773438 77.417969 L 53.917969 104.226562 C 54.484375 104.539062 55.191406 104.539062 55.757812 104.226562 L 70.980469 95.796875 C 71.546875 95.480469 71.898438 94.898438 71.898438 94.269531 L 55.757812 67.46875 C 55.472656 67.308594 55.152344 67.230469 54.835938 67.230469 C 54.515625 67.230469 54.199219 67.308594 53.914062 67.46875 " fill-opacity="1" fill-rule="nonzero"/></g><g clip-path="url(#a1ca9f0c28)"><path fill="#37474f" d="M 148.527344 75.746094 L 133.308594 67.324219 C 133.023438 67.167969 132.707031 67.089844 132.390625 67.089844 C 132.074219 67.089844 131.753906 67.167969 131.46875 67.324219 L 116.25 75.746094 C 115.679688 76.0625 115.328125 76.65625 115.328125 77.308594 L 115.328125 94.09375 C 115.328125 94.742188 115.679688 95.339844 116.25 95.652344 L 131.472656 104.082031 C 132.042969 104.398438 132.742188 104.398438 133.3125 104.082031 L 140.332031 100.195312 C 140.976562 99.839844 140.972656 98.917969 140.328125 98.5625 L 125.050781 90.226562 C 124.792969 90.082031 124.632812 89.8125 124.632812 89.519531 L 124.632812 81.871094 C 124.632812 81.585938 124.789062 81.320312 125.035156 81.1875 L 131.96875 77.351562 C 132.097656 77.28125 132.238281 77.246094 132.386719 77.246094 C 132.53125 77.246094 132.675781 77.28125 132.804688 77.351562 L 139.738281 81.1875 C 139.984375 81.324219 140.140625 81.589844 140.140625 81.875 L 140.140625 88.117188 C 140.140625 88.382812 140.285156 88.628906 140.515625 88.765625 C 140.75 88.894531 141.035156 88.894531 141.265625 88.761719 L 148.707031 84.441406 C 149.164062 84.171875 149.449219 83.679688 149.449219 83.144531 L 149.449219 77.3125 C 149.449219 76.660156 149.097656 76.0625 148.527344 75.746094 Z M 33.75 75.746094 L 18.53125 67.324219 C 18.246094 67.167969 17.925781 67.089844 17.609375 67.089844 C 17.292969 67.089844 16.976562 67.167969 16.691406 67.324219 L 1.472656 75.746094 C 0.902344 76.0625 0.550781 76.65625 0.550781 77.308594 L 0.550781 100.464844 C 0.550781 100.730469 0.691406 100.980469 0.925781 101.113281 C 1.15625 101.242188 1.441406 101.242188 1.675781 101.109375 L 9.113281 96.789062 C 9.574219 96.523438 9.855469 96.027344 9.855469 95.496094 L 9.855469 81.867188 C 9.855469 81.582031 10.011719 81.320312 10.257812 81.183594 L 17.191406 77.347656 C 17.324219 77.277344 17.464844 77.242188 17.609375 77.242188 C 17.757812 77.242188 17.898438 77.28125 18.03125 77.347656 L 24.964844 81.1875 C 25.210938 81.320312 25.367188 81.585938 25.367188 81.871094 L 25.367188 95.5 C 25.367188 96.03125 25.648438 96.527344 26.109375 96.792969 L 33.550781 101.113281 C 33.78125 101.246094 34.066406 101.246094 34.300781 101.117188 C 34.53125 100.980469 34.671875 100.730469 34.671875 100.464844 L 34.671875 77.3125 C 34.671875 76.660156 34.320312 76.0625 33.75 75.746094 Z M 33.75 75.746094 " fill-opacity="1" fill-rule="nonzero"/></g></svg>