<svg xmlns="http://www.w3.org/2000/svg" xmlns:xlink="http://www.w3.org/1999/xlink" width="200" zoomAndPan="magnify" viewBox="0 0 150 149.999998" height="200" preserveAspectRatio="xMidYMid meet" version="1.0"><defs><clipPath id="a126035770"><path d="M 0 43.78125 L 150 43.78125 L 150 106.03125 L 0 106.03125 Z M 0 43.78125 " clip-rule="nonzero"/></clipPath></defs><g clip-path="url(#a126035770)"><path fill="#d50000" d="M 0.0742188 43.78125 L 149.925781 43.78125 L 149.925781 96.695312 L 75 96.695312 L 75 106.03125 L 40.660156 106.03125 L 40.660156 96.695312 L 0.0742188 96.695312 Z M 0.0742188 43.78125 " fill-opacity="1" fill-rule="nonzero"/></g><path fill="#ffffff" d="M 9.441406 87.355469 L 25.050781 87.355469 L 25.050781 62.457031 L 34.414062 62.457031 L 34.414062 87.355469 L 40.660156 87.355469 L 40.660156 53.117188 L 9.441406 53.117188 Z M 50.023438 53.117188 L 50.023438 96.695312 L 65.632812 96.695312 L 65.632812 87.355469 L 81.242188 87.355469 L 81.242188 53.117188 Z M 75 78.019531 L 65.632812 78.019531 L 65.632812 62.457031 L 75 62.457031 Z M 90.609375 53.117188 L 90.609375 87.355469 L 106.21875 87.355469 L 106.21875 62.457031 L 115.585938 62.457031 L 115.585938 87.355469 L 124.949219 87.355469 L 124.949219 62.457031 L 134.316406 62.457031 L 134.316406 87.355469 L 140.558594 87.355469 L 140.558594 53.117188 Z M 90.609375 53.117188 " fill-opacity="1" fill-rule="nonzero"/></svg>