<svg xmlns="http://www.w3.org/2000/svg" xmlns:xlink="http://www.w3.org/1999/xlink" width="200" zoomAndPan="magnify" viewBox="0 0 150 149.999998" height="200" preserveAspectRatio="xMidYMid meet" version="1.0"><rect x="-15" width="180" fill="#007acc" y="-15" height="179.999997" fill-opacity="1"/><path fill="#ffffff" d="M 33.164062 75.492188 L 33.117188 81.636719 L 52.640625 81.636719 L 52.640625 137.113281 L 66.449219 137.113281 L 66.449219 81.636719 L 85.972656 81.636719 L 85.972656 75.613281 C 85.972656 72.28125 85.902344 69.492188 85.808594 69.421875 C 85.738281 69.328125 73.855469 69.28125 59.449219 69.304688 L 33.234375 69.375 Z M 33.164062 75.492188 " fill-opacity="1" fill-rule="nonzero"/><path fill="#ffffff" d="M 121.039062 69.203125 C 124.847656 70.152344 127.753906 71.847656 130.417969 74.605469 C 131.796875 76.082031 133.847656 78.773438 134.011719 79.417969 C 134.058594 79.609375 127.535156 83.988281 123.578125 86.441406 C 123.4375 86.535156 122.871094 85.917969 122.226562 84.964844 C 120.300781 82.152344 118.273438 80.941406 115.179688 80.730469 C 110.632812 80.417969 107.703125 82.796875 107.726562 86.777344 C 107.726562 87.941406 107.894531 88.632812 108.371094 89.582031 C 109.371094 91.65625 111.230469 92.894531 117.058594 95.417969 C 127.800781 100.035156 132.394531 103.082031 135.253906 107.417969 C 138.441406 112.253906 139.15625 119.964844 136.988281 125.699219 C 134.609375 131.941406 128.703125 136.175781 120.394531 137.582031 C 117.820312 138.035156 111.726562 137.964844 108.960938 137.464844 C 102.9375 136.394531 97.226562 133.417969 93.703125 129.515625 C 92.320312 127.992188 89.632812 124.011719 89.796875 123.726562 C 89.871094 123.632812 90.488281 123.25 91.179688 122.847656 C 91.847656 122.464844 94.371094 121.011719 96.75 119.628906 L 101.058594 117.132812 L 101.964844 118.464844 C 103.226562 120.390625 105.992188 123.035156 107.65625 123.917969 C 112.441406 126.4375 119.011719 126.082031 122.25 123.179688 C 123.632812 121.914062 124.203125 120.609375 124.203125 118.679688 C 124.203125 116.941406 123.992188 116.179688 123.082031 114.871094 C 121.917969 113.203125 119.539062 111.796875 112.777344 108.871094 C 105.035156 105.539062 101.703125 103.464844 98.65625 100.175781 C 96.890625 98.273438 95.226562 95.226562 94.535156 92.675781 C 93.960938 90.5625 93.820312 85.253906 94.273438 83.109375 C 95.871094 75.632812 101.515625 70.417969 109.652344 68.871094 C 112.296875 68.371094 118.441406 68.558594 121.039062 69.203125 Z M 121.039062 69.203125 " fill-opacity="1" fill-rule="nonzero"/></svg>