<svg xmlns="http://www.w3.org/2000/svg" xmlns:xlink="http://www.w3.org/1999/xlink" width="200" zoomAndPan="magnify" viewBox="0 0 150 149.999998" height="200" preserveAspectRatio="xMidYMid meet" version="1.0"><path fill="#1a54bf" d="M 144.671875 16.179688 L 113.8125 1.332031 C 112.070312 0.488281 110.101562 0.207031 108.191406 0.53125 C 106.277344 0.855469 104.515625 1.765625 103.144531 3.136719 L 44.042969 57.066406 L 18.285156 37.535156 C 17.125 36.648438 15.691406 36.195312 14.234375 36.257812 C 12.773438 36.320312 11.382812 36.894531 10.304688 37.875 L 2.054688 45.394531 C 1.410156 45.976562 0.894531 46.6875 0.539062 47.480469 C 0.1875 48.277344 0.00390625 49.132812 0 50.003906 C -0.00390625 50.871094 0.175781 51.734375 0.527344 52.527344 C 0.875 53.324219 1.390625 54.039062 2.03125 54.625 L 24.371094 75.007812 L 2.03125 95.394531 C 1.390625 95.980469 0.875 96.691406 0.527344 97.488281 C 0.175781 98.285156 -0.00390625 99.144531 0 100.011719 C 0.00390625 100.882812 0.1875 101.742188 0.539062 102.535156 C 0.894531 103.328125 1.410156 104.039062 2.054688 104.621094 L 10.304688 112.140625 C 11.382812 113.125 12.773438 113.695312 14.234375 113.757812 C 15.691406 113.820312 17.125 113.371094 18.285156 112.484375 L 44.042969 92.929688 L 103.175781 146.878906 C 104.539062 148.25 106.300781 149.164062 108.207031 149.484375 C 110.117188 149.808594 112.078125 149.527344 113.820312 148.683594 L 144.703125 133.816406 C 146.292969 133.050781 147.636719 131.851562 148.574219 130.359375 C 149.511719 128.863281 150.003906 127.132812 150 125.367188 L 150 24.613281 C 150 21.023438 147.925781 17.730469 144.679688 16.167969 Z M 112.515625 109.070312 L 67.644531 75.011719 L 112.515625 40.957031 Z M 112.515625 109.070312 " fill-opacity="1" fill-rule="nonzero"/></svg>