<svg xmlns="http://www.w3.org/2000/svg" xmlns:xlink="http://www.w3.org/1999/xlink" width="1080" zoomAndPan="magnify" viewBox="0 0 810 809.999993" height="1080" preserveAspectRatio="xMidYMid meet" version="1.0"><defs><clipPath id="40a9e45e99"><path d="M 55 115.929688 L 757 115.929688 L 757 415 L 55 415 Z M 55 115.929688 " clip-rule="nonzero"/></clipPath><clipPath id="f84ca1395d"><path d="M 0 161 L 810 161 L 810 694.179688 L 0 694.179688 Z M 0 161 " clip-rule="nonzero"/></clipPath></defs><g clip-path="url(#40a9e45e99)"><path fill="#000000" d="M 756.503906 122.582031 C 751.191406 120.371094 745.714844 118.707031 740.070312 117.585938 C 734.425781 116.46875 728.726562 115.914062 722.972656 115.929688 L 87.027344 115.929688 C 81.570312 115.9375 76.167969 116.476562 70.816406 117.546875 C 65.464844 118.617188 60.269531 120.199219 55.230469 122.292969 L 405 414.886719 Z M 756.503906 122.582031 " fill-opacity="1" fill-rule="nonzero"/></g><g clip-path="url(#f84ca1395d)"><path fill="#000000" d="M 799.285156 162.191406 L 423.5 474.734375 C 420.898438 476.890625 418.011719 478.539062 414.832031 479.683594 C 411.65625 480.824219 408.378906 481.390625 405 481.386719 C 401.621094 481.390625 398.34375 480.824219 395.167969 479.683594 C 391.988281 478.539062 389.101562 476.890625 386.5 474.734375 L 11.292969 161.035156 C 7.773438 167.414062 5.085938 174.128906 3.226562 181.171875 C 1.371094 188.21875 0.394531 195.382812 0.308594 202.667969 L 0.308594 607.445312 C 0.308594 608.863281 0.34375 610.28125 0.410156 611.699219 C 0.480469 613.117188 0.585938 614.53125 0.726562 615.945312 C 0.863281 617.359375 1.039062 618.765625 1.246094 620.171875 C 1.453125 621.574219 1.695312 622.972656 1.972656 624.367188 C 2.25 625.757812 2.5625 627.140625 2.90625 628.519531 C 3.25 629.894531 3.628906 631.265625 4.042969 632.621094 C 4.453125 633.980469 4.898438 635.328125 5.375 636.664062 C 5.855469 638 6.363281 639.324219 6.90625 640.636719 C 7.453125 641.949219 8.027344 643.246094 8.632812 644.527344 C 9.238281 645.8125 9.878906 647.078125 10.546875 648.332031 C 11.214844 649.582031 11.914062 650.816406 12.644531 652.035156 C 13.375 653.253906 14.132812 654.453125 14.921875 655.632812 C 15.710938 656.8125 16.527344 657.972656 17.371094 659.113281 C 18.21875 660.253906 19.089844 661.371094 19.992188 662.46875 C 20.890625 663.566406 21.820312 664.640625 22.773438 665.691406 C 23.726562 666.746094 24.703125 667.773438 25.707031 668.777344 C 26.710938 669.78125 27.738281 670.757812 28.789062 671.710938 C 29.839844 672.664062 30.914062 673.59375 32.011719 674.492188 C 33.109375 675.394531 34.226562 676.265625 35.367188 677.113281 C 36.507812 677.957031 37.667969 678.773438 38.847656 679.5625 C 40.027344 680.351562 41.226562 681.109375 42.445312 681.839844 C 43.660156 682.570312 44.894531 683.269531 46.148438 683.9375 C 47.398438 684.609375 48.667969 685.246094 49.949219 685.851562 C 51.230469 686.460938 52.53125 687.035156 53.839844 687.578125 C 55.152344 688.121094 56.476562 688.632812 57.8125 689.109375 C 59.148438 689.589844 60.496094 690.035156 61.851562 690.445312 C 63.210938 690.859375 64.578125 691.238281 65.957031 691.582031 C 67.332031 691.925781 68.714844 692.238281 70.109375 692.515625 C 71.5 692.792969 72.898438 693.035156 74.300781 693.242188 C 75.707031 693.449219 77.113281 693.625 78.527344 693.761719 C 79.9375 693.902344 81.355469 694.007812 82.773438 694.078125 C 84.1875 694.144531 85.609375 694.179688 87.027344 694.179688 L 722.972656 694.179688 C 724.390625 694.179688 725.8125 694.144531 727.226562 694.078125 C 728.644531 694.007812 730.0625 693.902344 731.472656 693.761719 C 732.886719 693.625 734.292969 693.449219 735.699219 693.242188 C 737.101562 693.035156 738.5 692.792969 739.890625 692.515625 C 741.28125 692.238281 742.667969 691.925781 744.042969 691.582031 C 745.421875 691.238281 746.789062 690.859375 748.144531 690.445312 C 749.503906 690.035156 750.851562 689.589844 752.1875 689.109375 C 753.523438 688.632812 754.847656 688.121094 756.160156 687.578125 C 757.46875 687.035156 758.765625 686.460938 760.050781 685.851562 C 761.332031 685.246094 762.601562 684.609375 763.851562 683.9375 C 765.105469 683.269531 766.339844 682.570312 767.554688 681.839844 C 768.773438 681.109375 769.972656 680.351562 771.152344 679.5625 C 772.332031 678.773438 773.492188 677.957031 774.632812 677.113281 C 775.773438 676.265625 776.890625 675.394531 777.988281 674.492188 C 779.085938 673.59375 780.160156 672.664062 781.210938 671.710938 C 782.261719 670.757812 783.289062 669.78125 784.292969 668.777344 C 785.296875 667.773438 786.273438 666.746094 787.226562 665.691406 C 788.179688 664.640625 789.109375 663.566406 790.007812 662.46875 C 790.910156 661.371094 791.78125 660.253906 792.628906 659.113281 C 793.472656 657.972656 794.289062 656.8125 795.078125 655.632812 C 795.867188 654.453125 796.625 653.253906 797.355469 652.035156 C 798.085938 650.816406 798.785156 649.582031 799.453125 648.332031 C 800.121094 647.078125 800.761719 645.8125 801.367188 644.527344 C 801.972656 643.246094 802.546875 641.949219 803.089844 640.636719 C 803.636719 639.324219 804.144531 638 804.625 636.664062 C 805.101562 635.328125 805.546875 633.980469 805.957031 632.621094 C 806.371094 631.265625 806.75 629.894531 807.09375 628.519531 C 807.4375 627.140625 807.75 625.757812 808.027344 624.367188 C 808.304688 622.972656 808.546875 621.574219 808.753906 620.171875 C 808.960938 618.765625 809.136719 617.359375 809.273438 615.945312 C 809.414062 614.53125 809.519531 613.117188 809.589844 611.699219 C 809.65625 610.28125 809.691406 608.863281 809.691406 607.445312 L 809.691406 202.667969 C 809.632812 195.597656 808.722656 188.640625 806.964844 181.792969 C 805.203125 174.945312 802.644531 168.414062 799.285156 162.191406 Z M 799.285156 162.191406 " fill-opacity="1" fill-rule="nonzero"/></g></svg>